STARTFONT 2.1
FONT --Tms Rmn-Regular-R-Medium--11-80-96-96-P-59-IBM-UGL
SIZE 8 96 96
FONTBOUNDINGBOX 12 13 0 -2
METRICSSET 2
STARTPROPERTIES 27
FONT_ASCENT 9
FONT_DESCENT 2
PIXEL_SIZE 11
RESOLUTION_X 96
RESOLUTION_Y 96
POINT_SIZE 80
FACE_NAME "Tms Rmn"
FOUNDRY ""
FAMILY_NAME "Tms Rmn"
WEIGHT_NAME "Regular"
RELATIVE_WEIGHT 50
SLANT "R"
SPACING "P"
SETWIDTH_NAME "Medium"
RELATIVE_SETWIDTH 50
ADD_STYLE_NAME ""
AVERAGE_WIDTH 59
UNDERLINE_POSITION 1
SUPERSCRIPT_SIZE 8
SUBSCRIPT_SIZE 8
SUPERSCRIPT_X 0
SUPERSCRIPT_Y 4
SUBSCRIPT_X 0
SUBSCRIPT_Y 1
DEFAULT_CHAR 32
CHARSET_REGISTRY "IBM"
CHARSET_ENCODING "UGL"
ENDPROPERTIES
CHARS 382
STARTCHAR smileface
ENCODING 1
SWIDTH 938 0
DWIDTH 10 0
BBX 8 8 1 0
VVECTOR 5 11
SWIDTH1 0 -1219
DWIDTH1 0 -13
BITMAP 
3C
42
A5
81
A5
99
42
3C
ENDCHAR
STARTCHAR invsmileface
ENCODING 2
SWIDTH 938 0
DWIDTH 10 0
BBX 8 8 1 0
VVECTOR 5 11
SWIDTH1 0 -1219
DWIDTH1 0 -13
BITMAP 
3C
7E
DB
FF
BD
C3
7E
3C
ENDCHAR
STARTCHAR heart
ENCODING 3
SWIDTH 844 0
DWIDTH 9 0
BBX 7 8 1 0
VVECTOR 5 11
SWIDTH1 0 -1219
DWIDTH1 0 -13
BITMAP 
44
EE
FE
FE
7C
38
10
10
ENDCHAR
STARTCHAR diamond
ENCODING 4
SWIDTH 844 0
DWIDTH 9 0
BBX 7 7 1 1
VVECTOR 5 11
SWIDTH1 0 -1219
DWIDTH1 0 -13
BITMAP 
10
38
7C
FE
7C
38
10
ENDCHAR
STARTCHAR club
ENCODING 5
SWIDTH 750 0
DWIDTH 8 0
BBX 7 8 0 0
VVECTOR 3 11
SWIDTH1 0 -1219
DWIDTH1 0 -13
BITMAP 
10
38
38
D6
FE
EE
10
7C
ENDCHAR
STARTCHAR spade
ENCODING 6
SWIDTH 844 0
DWIDTH 9 0
BBX 7 8 1 0
VVECTOR 5 11
SWIDTH1 0 -1219
DWIDTH1 0 -13
BITMAP 
10
10
38
7C
FE
EE
10
7C
ENDCHAR
STARTCHAR bullet
ENCODING 7
SWIDTH 844 0
DWIDTH 9 0
BBX 5 5 2 2
VVECTOR 5 11
SWIDTH1 0 -1219
DWIDTH1 0 -13
BITMAP 
70
F8
F8
F8
70
ENDCHAR
STARTCHAR invbullet
ENCODING 8
SWIDTH 844 0
DWIDTH 9 0
BBX 9 9 0 0
VVECTOR 5 11
SWIDTH1 0 -1219
DWIDTH1 0 -13
BITMAP 
FF80
FF80
E380
C180
C180
C180
E380
FF80
FF80
ENDCHAR
STARTCHAR circle
ENCODING 9
SWIDTH 844 0
DWIDTH 9 0
BBX 7 7 1 1
VVECTOR 5 11
SWIDTH1 0 -1219
DWIDTH1 0 -13
BITMAP 
38
44
82
82
82
44
38
ENDCHAR
STARTCHAR invcircle
ENCODING 10
SWIDTH 844 0
DWIDTH 9 0
BBX 9 9 0 0
VVECTOR 5 11
SWIDTH1 0 -1219
DWIDTH1 0 -13
BITMAP 
FF80
E380
DD80
BE80
BE80
BE80
DD80
E380
FF80
ENDCHAR
STARTCHAR male
ENCODING 11
SWIDTH 562 0
DWIDTH 6 0
BBX 6 8 0 0
VVECTOR 3 11
SWIDTH1 0 -1219
DWIDTH1 0 -13
BITMAP 
1C
0C
14
70
88
88
88
70
ENDCHAR
STARTCHAR female
ENCODING 12
SWIDTH 656 0
DWIDTH 7 0
BBX 5 9 1 0
VVECTOR 4 11
SWIDTH1 0 -1219
DWIDTH1 0 -13
BITMAP 
70
88
88
88
70
20
F8
20
20
ENDCHAR
STARTCHAR musicalnote
ENCODING 13
SWIDTH 469 0
DWIDTH 5 0
BBX 5 9 0 0
VVECTOR 3 11
SWIDTH1 0 -1219
DWIDTH1 0 -13
BITMAP 
20
30
30
28
28
28
28
E0
C0
ENDCHAR
STARTCHAR musicalnotedbl
ENCODING 14
SWIDTH 750 0
DWIDTH 8 0
BBX 7 9 0 0
VVECTOR 3 11
SWIDTH1 0 -1219
DWIDTH1 0 -13
BITMAP 
02
0E
32
26
3A
22
22
EE
CC
ENDCHAR
STARTCHAR sun
ENCODING 15
SWIDTH 844 0
DWIDTH 9 0
BBX 9 9 0 0
VVECTOR 5 11
SWIDTH1 0 -1219
DWIDTH1 0 -13
BITMAP 
0800
5D00
2200
4100
C180
4100
2200
5D00
0800
ENDCHAR
STARTCHAR triagrt
ENCODING 16
SWIDTH 750 0
DWIDTH 8 0
BBX 6 7 2 1
VVECTOR 6 11
SWIDTH1 0 -1219
DWIDTH1 0 -13
BITMAP 
80
E0
F8
FC
F8
E0
80
ENDCHAR
STARTCHAR triaglf
ENCODING 17
SWIDTH 750 0
DWIDTH 8 0
BBX 6 7 1 1
VVECTOR 4 11
SWIDTH1 0 -1219
DWIDTH1 0 -13
BITMAP 
04
1C
7C
FC
7C
1C
04
ENDCHAR
STARTCHAR arrowupdn
ENCODING 18
SWIDTH 469 0
DWIDTH 5 0
BBX 3 9 1 0
VVECTOR 3 11
SWIDTH1 0 -1219
DWIDTH1 0 -13
BITMAP 
40
E0
40
40
40
40
40
E0
40
ENDCHAR
STARTCHAR exclamdbl
ENCODING 19
SWIDTH 656 0
DWIDTH 7 0
BBX 4 9 2 0
VVECTOR 5 11
SWIDTH1 0 -1219
DWIDTH1 0 -13
BITMAP 
90
90
90
90
90
90
00
00
90
ENDCHAR
STARTCHAR char14
ENCODING 20
SWIDTH 562 0
DWIDTH 6 0
BBX 6 9 0 0
VVECTOR 3 11
SWIDTH1 0 -1219
DWIDTH1 0 -13
BITMAP 
7C
E8
E8
E8
68
28
28
28
28
ENDCHAR
STARTCHAR char15
ENCODING 21
SWIDTH 469 0
DWIDTH 5 0
BBX 4 11 1 -2
VVECTOR 4 11
SWIDTH1 0 -1219
DWIDTH1 0 -13
BITMAP 
60
90
80
40
A0
90
50
20
90
90
60
ENDCHAR
STARTCHAR filledrect
ENCODING 22
SWIDTH 844 0
DWIDTH 9 0
BBX 7 3 1 3
VVECTOR 5 11
SWIDTH1 0 -1219
DWIDTH1 0 -13
BITMAP 
FE
FE
FE
ENDCHAR
STARTCHAR arrowupdnbse
ENCODING 23
SWIDTH 469 0
DWIDTH 5 0
BBX 5 10 0 -1
VVECTOR 3 11
SWIDTH1 0 -1219
DWIDTH1 0 -13
BITMAP 
20
70
20
20
20
20
70
20
00
F8
ENDCHAR
STARTCHAR arrowup
ENCODING 24
SWIDTH 469 0
DWIDTH 5 0
BBX 3 9 1 0
VVECTOR 3 11
SWIDTH1 0 -1219
DWIDTH1 0 -13
BITMAP 
40
E0
40
40
40
40
40
40
40
ENDCHAR
STARTCHAR arrowdown
ENCODING 25
SWIDTH 469 0
DWIDTH 5 0
BBX 3 9 1 0
VVECTOR 3 11
SWIDTH1 0 -1219
DWIDTH1 0 -13
BITMAP 
40
40
40
40
40
40
40
E0
40
ENDCHAR
STARTCHAR arrowright
ENCODING 26
SWIDTH 844 0
DWIDTH 9 0
BBX 8 3 1 3
VVECTOR 6 11
SWIDTH1 0 -1219
DWIDTH1 0 -13
BITMAP 
02
FF
02
ENDCHAR
STARTCHAR arrowleft
ENCODING 27
SWIDTH 844 0
DWIDTH 9 0
BBX 8 3 1 3
VVECTOR 6 11
SWIDTH1 0 -1219
DWIDTH1 0 -13
BITMAP 
40
FF
40
ENDCHAR
STARTCHAR orthogonal
ENCODING 28
SWIDTH 562 0
DWIDTH 6 0
BBX 5 4 1 0
VVECTOR 4 11
SWIDTH1 0 -1219
DWIDTH1 0 -13
BITMAP 
80
80
80
F8
ENDCHAR
STARTCHAR arrowboth
ENCODING 29
SWIDTH 750 0
DWIDTH 8 0
BBX 7 3 1 3
VVECTOR 5 11
SWIDTH1 0 -1219
DWIDTH1 0 -13
BITMAP 
44
FE
44
ENDCHAR
STARTCHAR triagup
ENCODING 30
SWIDTH 750 0
DWIDTH 8 0
BBX 6 6 1 2
VVECTOR 4 11
SWIDTH1 0 -1219
DWIDTH1 0 -13
BITMAP 
30
30
78
78
FC
FC
ENDCHAR
STARTCHAR triagdn
ENCODING 31
SWIDTH 750 0
DWIDTH 8 0
BBX 6 6 2 2
VVECTOR 6 11
SWIDTH1 0 -1219
DWIDTH1 0 -13
BITMAP 
FC
FC
78
78
30
30
ENDCHAR
STARTCHAR space
ENCODING 32
SWIDTH 188 0
DWIDTH 2 0
BBX 0 0 2 11
VVECTOR 3 11
SWIDTH1 0 -1219
DWIDTH1 0 -13
BITMAP 
ENDCHAR
STARTCHAR exclam
ENCODING 33
SWIDTH 281 0
DWIDTH 3 0
BBX 1 9 1 0
VVECTOR 2 11
SWIDTH1 0 -1219
DWIDTH1 0 -13
BITMAP 
80
80
80
80
80
80
00
00
80
ENDCHAR
STARTCHAR quotedbl
ENCODING 34
SWIDTH 375 0
DWIDTH 4 0
BBX 3 3 1 6
VVECTOR 3 11
SWIDTH1 0 -1219
DWIDTH1 0 -13
BITMAP 
A0
A0
A0
ENDCHAR
STARTCHAR numbersign
ENCODING 35
SWIDTH 562 0
DWIDTH 6 0
BBX 5 9 1 0
VVECTOR 4 11
SWIDTH1 0 -1219
DWIDTH1 0 -13
BITMAP 
50
50
F8
50
50
50
F8
50
50
ENDCHAR
STARTCHAR dollar
ENCODING 36
SWIDTH 469 0
DWIDTH 5 0
BBX 4 10 1 -1
VVECTOR 4 11
SWIDTH1 0 -1219
DWIDTH1 0 -13
BITMAP 
20
60
90
80
40
20
10
90
60
20
ENDCHAR
STARTCHAR percent
ENCODING 37
SWIDTH 938 0
DWIDTH 10 0
BBX 9 9 1 0
VVECTOR 6 11
SWIDTH1 0 -1219
DWIDTH1 0 -13
BITMAP 
6080
9100
9200
6400
0800
1300
2480
4480
8300
ENDCHAR
STARTCHAR ampersand
ENCODING 38
SWIDTH 750 0
DWIDTH 8 0
BBX 7 9 1 0
VVECTOR 5 11
SWIDTH1 0 -1219
DWIDTH1 0 -13
BITMAP 
60
90
90
60
60
96
94
88
74
ENDCHAR
STARTCHAR quotesingle
ENCODING 39
SWIDTH 188 0
DWIDTH 2 0
BBX 1 3 1 6
VVECTOR 2 11
SWIDTH1 0 -1219
DWIDTH1 0 -13
BITMAP 
80
80
80
ENDCHAR
STARTCHAR parenleft
ENCODING 40
SWIDTH 281 0
DWIDTH 3 0
BBX 2 11 1 -2
VVECTOR 3 11
SWIDTH1 0 -1219
DWIDTH1 0 -13
BITMAP 
40
40
80
80
80
80
80
80
80
40
40
ENDCHAR
STARTCHAR parenright
ENCODING 41
SWIDTH 281 0
DWIDTH 3 0
BBX 2 11 1 -2
VVECTOR 3 11
SWIDTH1 0 -1219
DWIDTH1 0 -13
BITMAP 
80
80
40
40
40
40
40
40
40
80
80
ENDCHAR
STARTCHAR asterisk
ENCODING 42
SWIDTH 469 0
DWIDTH 5 0
BBX 4 4 1 5
VVECTOR 4 11
SWIDTH1 0 -1219
DWIDTH1 0 -13
BITMAP 
90
60
60
90
ENDCHAR
STARTCHAR plus
ENCODING 43
SWIDTH 562 0
DWIDTH 6 0
BBX 5 5 1 2
VVECTOR 4 11
SWIDTH1 0 -1219
DWIDTH1 0 -13
BITMAP 
20
20
F8
20
20
ENDCHAR
STARTCHAR comma
ENCODING 44
SWIDTH 188 0
DWIDTH 2 0
BBX 1 2 1 -1
VVECTOR 2 11
SWIDTH1 0 -1219
DWIDTH1 0 -13
BITMAP 
80
80
ENDCHAR
STARTCHAR hyphen
ENCODING 45
SWIDTH 281 0
DWIDTH 3 0
BBX 2 1 1 4
VVECTOR 3 11
SWIDTH1 0 -1219
DWIDTH1 0 -13
BITMAP 
C0
ENDCHAR
STARTCHAR period
ENCODING 46
SWIDTH 188 0
DWIDTH 2 0
BBX 1 1 1 0
VVECTOR 2 11
SWIDTH1 0 -1219
DWIDTH1 0 -13
BITMAP 
80
ENDCHAR
STARTCHAR slash
ENCODING 47
SWIDTH 281 0
DWIDTH 3 0
BBX 2 9 1 0
VVECTOR 3 11
SWIDTH1 0 -1219
DWIDTH1 0 -13
BITMAP 
40
40
40
40
40
80
80
80
80
ENDCHAR
STARTCHAR zero
ENCODING 48
SWIDTH 469 0
DWIDTH 5 0
BBX 4 9 1 0
VVECTOR 4 11
SWIDTH1 0 -1219
DWIDTH1 0 -13
BITMAP 
60
90
90
90
90
90
90
90
60
ENDCHAR
STARTCHAR one
ENCODING 49
SWIDTH 469 0
DWIDTH 5 0
BBX 3 9 2 0
VVECTOR 5 11
SWIDTH1 0 -1219
DWIDTH1 0 -13
BITMAP 
40
C0
40
40
40
40
40
40
E0
ENDCHAR
STARTCHAR two
ENCODING 50
SWIDTH 469 0
DWIDTH 5 0
BBX 4 9 1 0
VVECTOR 4 11
SWIDTH1 0 -1219
DWIDTH1 0 -13
BITMAP 
60
90
10
10
20
40
80
90
F0
ENDCHAR
STARTCHAR three
ENCODING 51
SWIDTH 469 0
DWIDTH 5 0
BBX 4 9 1 0
VVECTOR 4 11
SWIDTH1 0 -1219
DWIDTH1 0 -13
BITMAP 
60
90
10
10
60
10
10
90
60
ENDCHAR
STARTCHAR four
ENCODING 52
SWIDTH 469 0
DWIDTH 5 0
BBX 4 9 1 0
VVECTOR 4 11
SWIDTH1 0 -1219
DWIDTH1 0 -13
BITMAP 
10
30
30
50
50
90
F0
10
10
ENDCHAR
STARTCHAR five
ENCODING 53
SWIDTH 469 0
DWIDTH 5 0
BBX 4 9 1 0
VVECTOR 4 11
SWIDTH1 0 -1219
DWIDTH1 0 -13
BITMAP 
F0
80
80
E0
90
10
10
90
60
ENDCHAR
STARTCHAR six
ENCODING 54
SWIDTH 469 0
DWIDTH 5 0
BBX 4 9 1 0
VVECTOR 4 11
SWIDTH1 0 -1219
DWIDTH1 0 -13
BITMAP 
60
90
80
80
E0
90
90
90
60
ENDCHAR
STARTCHAR seven
ENCODING 55
SWIDTH 469 0
DWIDTH 5 0
BBX 4 9 1 0
VVECTOR 4 11
SWIDTH1 0 -1219
DWIDTH1 0 -13
BITMAP 
F0
90
90
20
20
20
40
40
40
ENDCHAR
STARTCHAR eight
ENCODING 56
SWIDTH 469 0
DWIDTH 5 0
BBX 4 9 1 0
VVECTOR 4 11
SWIDTH1 0 -1219
DWIDTH1 0 -13
BITMAP 
60
90
90
90
60
90
90
90
60
ENDCHAR
STARTCHAR nine
ENCODING 57
SWIDTH 469 0
DWIDTH 5 0
BBX 4 9 1 0
VVECTOR 4 11
SWIDTH1 0 -1219
DWIDTH1 0 -13
BITMAP 
60
90
90
90
70
10
10
10
60
ENDCHAR
STARTCHAR colon
ENCODING 58
SWIDTH 188 0
DWIDTH 2 0
BBX 1 7 1 0
VVECTOR 2 11
SWIDTH1 0 -1219
DWIDTH1 0 -13
BITMAP 
80
00
00
00
00
00
80
ENDCHAR
STARTCHAR semicolon
ENCODING 59
SWIDTH 188 0
DWIDTH 2 0
BBX 1 8 1 -1
VVECTOR 2 11
SWIDTH1 0 -1219
DWIDTH1 0 -13
BITMAP 
80
00
00
00
00
00
80
80
ENDCHAR
STARTCHAR less
ENCODING 60
SWIDTH 562 0
DWIDTH 6 0
BBX 5 5 1 1
VVECTOR 4 11
SWIDTH1 0 -1219
DWIDTH1 0 -13
BITMAP 
18
60
80
60
18
ENDCHAR
STARTCHAR equal
ENCODING 61
SWIDTH 562 0
DWIDTH 6 0
BBX 5 3 1 2
VVECTOR 4 11
SWIDTH1 0 -1219
DWIDTH1 0 -13
BITMAP 
F8
00
F8
ENDCHAR
STARTCHAR greater
ENCODING 62
SWIDTH 562 0
DWIDTH 6 0
BBX 5 5 1 1
VVECTOR 4 11
SWIDTH1 0 -1219
DWIDTH1 0 -13
BITMAP 
C0
30
08
30
C0
ENDCHAR
STARTCHAR question
ENCODING 63
SWIDTH 469 0
DWIDTH 5 0
BBX 4 9 1 0
VVECTOR 4 11
SWIDTH1 0 -1219
DWIDTH1 0 -13
BITMAP 
60
90
90
10
20
40
40
00
40
ENDCHAR
STARTCHAR at
ENCODING 64
SWIDTH 844 0
DWIDTH 9 0
BBX 8 10 1 -1
VVECTOR 6 11
SWIDTH1 0 -1219
DWIDTH1 0 -13
BITMAP 
3C
42
9D
A5
A5
A5
A5
9A
40
3C
ENDCHAR
STARTCHAR A
ENCODING 65
SWIDTH 750 0
DWIDTH 8 0
BBX 7 9 1 0
VVECTOR 5 11
SWIDTH1 0 -1219
DWIDTH1 0 -13
BITMAP 
10
10
28
28
28
44
7C
44
EE
ENDCHAR
STARTCHAR B
ENCODING 66
SWIDTH 656 0
DWIDTH 7 0
BBX 5 9 1 0
VVECTOR 4 11
SWIDTH1 0 -1219
DWIDTH1 0 -13
BITMAP 
F0
48
48
48
70
48
48
48
F0
ENDCHAR
STARTCHAR C
ENCODING 67
SWIDTH 656 0
DWIDTH 7 0
BBX 5 9 2 0
VVECTOR 6 11
SWIDTH1 0 -1219
DWIDTH1 0 -13
BITMAP 
78
88
80
80
80
80
80
88
70
ENDCHAR
STARTCHAR D
ENCODING 68
SWIDTH 750 0
DWIDTH 8 0
BBX 6 9 1 0
VVECTOR 4 11
SWIDTH1 0 -1219
DWIDTH1 0 -13
BITMAP 
F0
48
44
44
44
44
44
48
F0
ENDCHAR
STARTCHAR E
ENCODING 69
SWIDTH 656 0
DWIDTH 7 0
BBX 5 9 1 0
VVECTOR 4 11
SWIDTH1 0 -1219
DWIDTH1 0 -13
BITMAP 
F8
48
40
50
70
50
40
48
F8
ENDCHAR
STARTCHAR F
ENCODING 70
SWIDTH 562 0
DWIDTH 6 0
BBX 5 9 1 0
VVECTOR 4 11
SWIDTH1 0 -1219
DWIDTH1 0 -13
BITMAP 
F8
48
40
50
70
50
40
40
E0
ENDCHAR
STARTCHAR G
ENCODING 71
SWIDTH 750 0
DWIDTH 8 0
BBX 6 9 2 0
VVECTOR 6 11
SWIDTH1 0 -1219
DWIDTH1 0 -13
BITMAP 
78
88
80
80
9C
88
88
88
70
ENDCHAR
STARTCHAR H
ENCODING 72
SWIDTH 750 0
DWIDTH 8 0
BBX 7 9 1 0
VVECTOR 5 11
SWIDTH1 0 -1219
DWIDTH1 0 -13
BITMAP 
EE
44
44
44
7C
44
44
44
EE
ENDCHAR
STARTCHAR I
ENCODING 73
SWIDTH 375 0
DWIDTH 4 0
BBX 3 9 1 0
VVECTOR 3 11
SWIDTH1 0 -1219
DWIDTH1 0 -13
BITMAP 
E0
40
40
40
40
40
40
40
E0
ENDCHAR
STARTCHAR J
ENCODING 74
SWIDTH 469 0
DWIDTH 5 0
BBX 4 9 1 0
VVECTOR 4 11
SWIDTH1 0 -1219
DWIDTH1 0 -13
BITMAP 
70
20
20
20
20
20
20
A0
C0
ENDCHAR
STARTCHAR K
ENCODING 75
SWIDTH 750 0
DWIDTH 8 0
BBX 7 9 1 0
VVECTOR 5 11
SWIDTH1 0 -1219
DWIDTH1 0 -13
BITMAP 
EC
48
50
60
60
50
48
44
E6
ENDCHAR
STARTCHAR L
ENCODING 76
SWIDTH 562 0
DWIDTH 6 0
BBX 5 9 1 0
VVECTOR 4 11
SWIDTH1 0 -1219
DWIDTH1 0 -13
BITMAP 
E0
40
40
40
40
40
40
48
F8
ENDCHAR
STARTCHAR M
ENCODING 77
SWIDTH 938 0
DWIDTH 10 0
BBX 9 9 1 0
VVECTOR 6 11
SWIDTH1 0 -1219
DWIDTH1 0 -13
BITMAP 
C180
4100
6300
6300
5500
5500
4900
4900
E380
ENDCHAR
STARTCHAR N
ENCODING 78
SWIDTH 750 0
DWIDTH 8 0
BBX 7 9 1 0
VVECTOR 5 11
SWIDTH1 0 -1219
DWIDTH1 0 -13
BITMAP 
CE
44
64
64
54
54
4C
4C
E4
ENDCHAR
STARTCHAR O
ENCODING 79
SWIDTH 750 0
DWIDTH 8 0
BBX 5 9 2 0
VVECTOR 5 11
SWIDTH1 0 -1219
DWIDTH1 0 -13
BITMAP 
70
88
88
88
88
88
88
88
70
ENDCHAR
STARTCHAR P
ENCODING 80
SWIDTH 562 0
DWIDTH 6 0
BBX 5 9 1 0
VVECTOR 4 11
SWIDTH1 0 -1219
DWIDTH1 0 -13
BITMAP 
F0
48
48
48
70
40
40
40
E0
ENDCHAR
STARTCHAR Q
ENCODING 81
SWIDTH 750 0
DWIDTH 8 0
BBX 5 11 2 -2
VVECTOR 5 11
SWIDTH1 0 -1219
DWIDTH1 0 -13
BITMAP 
70
88
88
88
88
88
88
88
70
30
18
ENDCHAR
STARTCHAR R
ENCODING 82
SWIDTH 656 0
DWIDTH 7 0
BBX 6 9 1 0
VVECTOR 5 11
SWIDTH1 0 -1219
DWIDTH1 0 -13
BITMAP 
F0
48
48
48
70
50
48
48
EC
ENDCHAR
STARTCHAR S
ENCODING 83
SWIDTH 562 0
DWIDTH 6 0
BBX 3 9 2 0
VVECTOR 4 11
SWIDTH1 0 -1219
DWIDTH1 0 -13
BITMAP 
60
A0
80
80
40
20
20
A0
C0
ENDCHAR
STARTCHAR T
ENCODING 84
SWIDTH 562 0
DWIDTH 6 0
BBX 5 9 1 0
VVECTOR 4 11
SWIDTH1 0 -1219
DWIDTH1 0 -13
BITMAP 
F8
A8
20
20
20
20
20
20
70
ENDCHAR
STARTCHAR U
ENCODING 85
SWIDTH 750 0
DWIDTH 8 0
BBX 7 9 1 0
VVECTOR 5 11
SWIDTH1 0 -1219
DWIDTH1 0 -13
BITMAP 
EE
44
44
44
44
44
44
44
38
ENDCHAR
STARTCHAR V
ENCODING 86
SWIDTH 750 0
DWIDTH 8 0
BBX 7 9 1 0
VVECTOR 5 11
SWIDTH1 0 -1219
DWIDTH1 0 -13
BITMAP 
EE
44
44
44
28
28
28
10
10
ENDCHAR
STARTCHAR W
ENCODING 87
SWIDTH 938 0
DWIDTH 10 0
BBX 9 9 1 0
VVECTOR 6 11
SWIDTH1 0 -1219
DWIDTH1 0 -13
BITMAP 
E380
4100
4100
4900
4900
5500
5500
2200
2200
ENDCHAR
STARTCHAR X
ENCODING 88
SWIDTH 750 0
DWIDTH 8 0
BBX 7 9 1 0
VVECTOR 5 11
SWIDTH1 0 -1219
DWIDTH1 0 -13
BITMAP 
EE
44
28
28
10
28
28
44
EE
ENDCHAR
STARTCHAR Y
ENCODING 89
SWIDTH 750 0
DWIDTH 8 0
BBX 7 9 1 0
VVECTOR 5 11
SWIDTH1 0 -1219
DWIDTH1 0 -13
BITMAP 
EE
44
44
28
28
10
10
10
38
ENDCHAR
STARTCHAR Z
ENCODING 90
SWIDTH 562 0
DWIDTH 6 0
BBX 5 9 1 0
VVECTOR 4 11
SWIDTH1 0 -1219
DWIDTH1 0 -13
BITMAP 
F8
88
10
10
20
40
40
88
F8
ENDCHAR
STARTCHAR bracketleft
ENCODING 91
SWIDTH 281 0
DWIDTH 3 0
BBX 2 11 1 -2
VVECTOR 3 11
SWIDTH1 0 -1219
DWIDTH1 0 -13
BITMAP 
C0
80
80
80
80
80
80
80
80
80
C0
ENDCHAR
STARTCHAR backslash
ENCODING 92
SWIDTH 281 0
DWIDTH 3 0
BBX 2 9 1 0
VVECTOR 3 11
SWIDTH1 0 -1219
DWIDTH1 0 -13
BITMAP 
80
80
80
80
80
40
40
40
40
ENDCHAR
STARTCHAR bracketright
ENCODING 93
SWIDTH 281 0
DWIDTH 3 0
BBX 2 11 1 -2
VVECTOR 3 11
SWIDTH1 0 -1219
DWIDTH1 0 -13
BITMAP 
C0
40
40
40
40
40
40
40
40
40
C0
ENDCHAR
STARTCHAR asciicircum
ENCODING 94
SWIDTH 375 0
DWIDTH 4 0
BBX 3 2 1 9
VVECTOR 3 11
SWIDTH1 0 -1219
DWIDTH1 0 -13
BITMAP 
40
A0
ENDCHAR
STARTCHAR underscore
ENCODING 95
SWIDTH 469 0
DWIDTH 5 0
BBX 5 1 0 -2
VVECTOR 3 11
SWIDTH1 0 -1219
DWIDTH1 0 -13
BITMAP 
F8
ENDCHAR
STARTCHAR grave
ENCODING 96
SWIDTH 281 0
DWIDTH 3 0
BBX 2 2 1 7
VVECTOR 3 11
SWIDTH1 0 -1219
DWIDTH1 0 -13
BITMAP 
80
40
ENDCHAR
STARTCHAR a
ENCODING 97
SWIDTH 469 0
DWIDTH 5 0
BBX 4 6 1 0
VVECTOR 4 11
SWIDTH1 0 -1219
DWIDTH1 0 -13
BITMAP 
60
10
70
90
90
70
ENDCHAR
STARTCHAR b
ENCODING 98
SWIDTH 469 0
DWIDTH 5 0
BBX 5 9 0 0
VVECTOR 3 11
SWIDTH1 0 -1219
DWIDTH1 0 -13
BITMAP 
C0
40
40
70
48
48
48
48
30
ENDCHAR
STARTCHAR c
ENCODING 99
SWIDTH 469 0
DWIDTH 5 0
BBX 4 6 1 0
VVECTOR 4 11
SWIDTH1 0 -1219
DWIDTH1 0 -13
BITMAP 
60
90
80
80
90
60
ENDCHAR
STARTCHAR d
ENCODING 100
SWIDTH 469 0
DWIDTH 5 0
BBX 4 9 1 0
VVECTOR 4 11
SWIDTH1 0 -1219
DWIDTH1 0 -13
BITMAP 
30
10
10
70
90
90
90
90
70
ENDCHAR
STARTCHAR e
ENCODING 101
SWIDTH 469 0
DWIDTH 5 0
BBX 4 6 1 0
VVECTOR 4 11
SWIDTH1 0 -1219
DWIDTH1 0 -13
BITMAP 
60
90
F0
80
90
60
ENDCHAR
STARTCHAR f
ENCODING 102
SWIDTH 281 0
DWIDTH 3 0
BBX 3 9 0 0
VVECTOR 2 11
SWIDTH1 0 -1219
DWIDTH1 0 -13
BITMAP 
20
40
40
E0
40
40
40
40
60
ENDCHAR
STARTCHAR g
ENCODING 103
SWIDTH 469 0
DWIDTH 5 0
BBX 4 8 1 -2
VVECTOR 4 11
SWIDTH1 0 -1219
DWIDTH1 0 -13
BITMAP 
70
90
90
90
90
70
10
60
ENDCHAR
STARTCHAR h
ENCODING 104
SWIDTH 469 0
DWIDTH 5 0
BBX 5 9 0 0
VVECTOR 3 11
SWIDTH1 0 -1219
DWIDTH1 0 -13
BITMAP 
C0
40
40
70
48
48
48
48
48
ENDCHAR
STARTCHAR i
ENCODING 105
SWIDTH 188 0
DWIDTH 2 0
BBX 2 9 0 0
VVECTOR 1 11
SWIDTH1 0 -1219
DWIDTH1 0 -13
BITMAP 
40
00
00
C0
40
40
40
40
40
ENDCHAR
STARTCHAR j
ENCODING 106
SWIDTH 188 0
DWIDTH 2 0
BBX 2 11 0 -2
VVECTOR 1 11
SWIDTH1 0 -1219
DWIDTH1 0 -13
BITMAP 
40
00
00
C0
40
40
40
40
40
40
80
ENDCHAR
STARTCHAR k
ENCODING 107
SWIDTH 469 0
DWIDTH 5 0
BBX 5 9 0 0
VVECTOR 3 11
SWIDTH1 0 -1219
DWIDTH1 0 -13
BITMAP 
C0
40
40
48
50
60
60
50
48
ENDCHAR
STARTCHAR l
ENCODING 108
SWIDTH 188 0
DWIDTH 2 0
BBX 2 9 0 0
VVECTOR 1 11
SWIDTH1 0 -1219
DWIDTH1 0 -13
BITMAP 
C0
40
40
40
40
40
40
40
40
ENDCHAR
STARTCHAR m
ENCODING 109
SWIDTH 750 0
DWIDTH 8 0
BBX 8 6 0 0
VVECTOR 4 11
SWIDTH1 0 -1219
DWIDTH1 0 -13
BITMAP 
B6
49
49
49
49
49
ENDCHAR
STARTCHAR n
ENCODING 110
SWIDTH 469 0
DWIDTH 5 0
BBX 5 6 0 0
VVECTOR 3 11
SWIDTH1 0 -1219
DWIDTH1 0 -13
BITMAP 
B0
48
48
48
48
48
ENDCHAR
STARTCHAR o
ENCODING 111
SWIDTH 469 0
DWIDTH 5 0
BBX 4 6 1 0
VVECTOR 4 11
SWIDTH1 0 -1219
DWIDTH1 0 -13
BITMAP 
60
90
90
90
90
60
ENDCHAR
STARTCHAR p
ENCODING 112
SWIDTH 469 0
DWIDTH 5 0
BBX 5 8 0 -2
VVECTOR 3 11
SWIDTH1 0 -1219
DWIDTH1 0 -13
BITMAP 
B0
48
48
48
48
70
40
E0
ENDCHAR
STARTCHAR q
ENCODING 113
SWIDTH 469 0
DWIDTH 5 0
BBX 4 8 1 -2
VVECTOR 4 11
SWIDTH1 0 -1219
DWIDTH1 0 -13
BITMAP 
60
90
90
90
90
70
10
30
ENDCHAR
STARTCHAR r
ENCODING 114
SWIDTH 375 0
DWIDTH 4 0
BBX 4 6 0 0
VVECTOR 2 11
SWIDTH1 0 -1219
DWIDTH1 0 -13
BITMAP 
B0
50
40
40
40
60
ENDCHAR
STARTCHAR s
ENCODING 115
SWIDTH 375 0
DWIDTH 4 0
BBX 3 6 1 0
VVECTOR 3 11
SWIDTH1 0 -1219
DWIDTH1 0 -13
BITMAP 
60
80
40
20
20
C0
ENDCHAR
STARTCHAR t
ENCODING 116
SWIDTH 281 0
DWIDTH 3 0
BBX 3 8 0 0
VVECTOR 2 11
SWIDTH1 0 -1219
DWIDTH1 0 -13
BITMAP 
40
40
E0
40
40
40
40
20
ENDCHAR
STARTCHAR u
ENCODING 117
SWIDTH 469 0
DWIDTH 5 0
BBX 5 6 0 0
VVECTOR 3 11
SWIDTH1 0 -1219
DWIDTH1 0 -13
BITMAP 
D8
48
48
48
48
38
ENDCHAR
STARTCHAR v
ENCODING 118
SWIDTH 469 0
DWIDTH 5 0
BBX 5 6 0 0
VVECTOR 3 11
SWIDTH1 0 -1219
DWIDTH1 0 -13
BITMAP 
88
88
50
50
20
20
ENDCHAR
STARTCHAR w
ENCODING 119
SWIDTH 750 0
DWIDTH 8 0
BBX 7 6 1 0
VVECTOR 5 11
SWIDTH1 0 -1219
DWIDTH1 0 -13
BITMAP 
D6
92
AA
AA
44
44
ENDCHAR
STARTCHAR x
ENCODING 120
SWIDTH 469 0
DWIDTH 5 0
BBX 5 6 0 0
VVECTOR 3 11
SWIDTH1 0 -1219
DWIDTH1 0 -13
BITMAP 
D8
50
20
20
50
D8
ENDCHAR
STARTCHAR y
ENCODING 121
SWIDTH 469 0
DWIDTH 5 0
BBX 4 8 1 -2
VVECTOR 4 11
SWIDTH1 0 -1219
DWIDTH1 0 -13
BITMAP 
90
90
90
90
60
40
40
80
ENDCHAR
STARTCHAR z
ENCODING 122
SWIDTH 469 0
DWIDTH 5 0
BBX 4 6 1 0
VVECTOR 4 11
SWIDTH1 0 -1219
DWIDTH1 0 -13
BITMAP 
F0
90
20
40
90
F0
ENDCHAR
STARTCHAR braceleft
ENCODING 123
SWIDTH 375 0
DWIDTH 4 0
BBX 3 11 1 -2
VVECTOR 3 11
SWIDTH1 0 -1219
DWIDTH1 0 -13
BITMAP 
20
40
40
40
40
80
40
40
40
40
20
ENDCHAR
STARTCHAR bar
ENCODING 124
SWIDTH 188 0
DWIDTH 2 0
BBX 1 9 1 -1
VVECTOR 2 11
SWIDTH1 0 -1219
DWIDTH1 0 -13
BITMAP 
80
80
80
80
80
80
80
80
80
ENDCHAR
STARTCHAR braceright
ENCODING 125
SWIDTH 375 0
DWIDTH 4 0
BBX 3 11 1 -2
VVECTOR 3 11
SWIDTH1 0 -1219
DWIDTH1 0 -13
BITMAP 
80
40
40
40
40
20
40
40
40
40
80
ENDCHAR
STARTCHAR asciitilde
ENCODING 126
SWIDTH 562 0
DWIDTH 6 0
BBX 5 2 1 9
VVECTOR 4 11
SWIDTH1 0 -1219
DWIDTH1 0 -13
BITMAP 
68
B0
ENDCHAR
STARTCHAR house
ENCODING 127
SWIDTH 656 0
DWIDTH 7 0
BBX 7 8 0 0
VVECTOR 4 11
SWIDTH1 0 -1219
DWIDTH1 0 -13
BITMAP 
10
28
44
82
82
82
82
FE
ENDCHAR
STARTCHAR Ccedilla
ENCODING 128
SWIDTH 656 0
DWIDTH 7 0
BBX 5 11 2 -2
VVECTOR 6 11
SWIDTH1 0 -1219
DWIDTH1 0 -13
BITMAP 
78
88
80
80
80
80
80
88
70
20
60
ENDCHAR
STARTCHAR udieresis
ENCODING 129
SWIDTH 469 0
DWIDTH 5 0
BBX 5 8 0 0
VVECTOR 3 11
SWIDTH1 0 -1219
DWIDTH1 0 -13
BITMAP 
48
00
D8
48
48
48
48
38
ENDCHAR
STARTCHAR eacute
ENCODING 130
SWIDTH 469 0
DWIDTH 5 0
BBX 4 9 1 0
VVECTOR 4 11
SWIDTH1 0 -1219
DWIDTH1 0 -13
BITMAP 
20
40
00
60
90
F0
80
90
60
ENDCHAR
STARTCHAR acircumflex
ENCODING 131
SWIDTH 469 0
DWIDTH 5 0
BBX 4 9 1 0
VVECTOR 4 11
SWIDTH1 0 -1219
DWIDTH1 0 -13
BITMAP 
20
50
00
60
10
70
90
90
70
ENDCHAR
STARTCHAR adieresis
ENCODING 132
SWIDTH 469 0
DWIDTH 5 0
BBX 4 8 1 0
VVECTOR 4 11
SWIDTH1 0 -1219
DWIDTH1 0 -13
BITMAP 
50
00
60
10
70
90
90
70
ENDCHAR
STARTCHAR agrave
ENCODING 133
SWIDTH 469 0
DWIDTH 5 0
BBX 4 9 1 0
VVECTOR 4 11
SWIDTH1 0 -1219
DWIDTH1 0 -13
BITMAP 
40
20
00
60
10
70
90
90
70
ENDCHAR
STARTCHAR aring
ENCODING 134
SWIDTH 469 0
DWIDTH 5 0
BBX 4 10 1 0
VVECTOR 4 11
SWIDTH1 0 -1219
DWIDTH1 0 -13
BITMAP 
20
50
20
00
60
10
70
90
90
70
ENDCHAR
STARTCHAR ccedilla
ENCODING 135
SWIDTH 469 0
DWIDTH 5 0
BBX 4 8 1 -2
VVECTOR 4 11
SWIDTH1 0 -1219
DWIDTH1 0 -13
BITMAP 
60
90
80
80
90
60
20
60
ENDCHAR
STARTCHAR ecircumflex
ENCODING 136
SWIDTH 469 0
DWIDTH 5 0
BBX 4 9 1 0
VVECTOR 4 11
SWIDTH1 0 -1219
DWIDTH1 0 -13
BITMAP 
60
90
00
60
90
F0
80
90
60
ENDCHAR
STARTCHAR edieresis
ENCODING 137
SWIDTH 469 0
DWIDTH 5 0
BBX 4 8 1 0
VVECTOR 4 11
SWIDTH1 0 -1219
DWIDTH1 0 -13
BITMAP 
90
00
60
90
F0
80
90
60
ENDCHAR
STARTCHAR egrave
ENCODING 138
SWIDTH 469 0
DWIDTH 5 0
BBX 4 9 1 0
VVECTOR 4 11
SWIDTH1 0 -1219
DWIDTH1 0 -13
BITMAP 
40
20
00
60
90
F0
80
90
60
ENDCHAR
STARTCHAR idieresis
ENCODING 139
SWIDTH 188 0
DWIDTH 2 0
BBX 2 8 0 0
VVECTOR 1 11
SWIDTH1 0 -1219
DWIDTH1 0 -13
BITMAP 
C0
00
C0
40
40
40
40
40
ENDCHAR
STARTCHAR icircumflex
ENCODING 140
SWIDTH 188 0
DWIDTH 2 0
BBX 2 9 0 0
VVECTOR 1 11
SWIDTH1 0 -1219
DWIDTH1 0 -13
BITMAP 
C0
00
00
C0
40
40
40
40
40
ENDCHAR
STARTCHAR igrave
ENCODING 141
SWIDTH 188 0
DWIDTH 2 0
BBX 2 9 0 0
VVECTOR 1 11
SWIDTH1 0 -1219
DWIDTH1 0 -13
BITMAP 
80
40
00
C0
40
40
40
40
40
ENDCHAR
STARTCHAR Adieresis
ENCODING 142
SWIDTH 750 0
DWIDTH 8 0
BBX 7 11 1 0
VVECTOR 5 11
SWIDTH1 0 -1219
DWIDTH1 0 -13
BITMAP 
44
00
10
10
28
28
28
44
7C
44
EE
ENDCHAR
STARTCHAR Aring
ENCODING 143
SWIDTH 750 0
DWIDTH 8 0
BBX 7 11 1 0
VVECTOR 5 11
SWIDTH1 0 -1219
DWIDTH1 0 -13
BITMAP 
10
28
10
10
28
28
28
44
7C
44
EE
ENDCHAR
STARTCHAR Eacute
ENCODING 144
SWIDTH 656 0
DWIDTH 7 0
BBX 5 11 1 0
VVECTOR 4 11
SWIDTH1 0 -1219
DWIDTH1 0 -13
BITMAP 
10
20
F8
48
40
50
70
50
40
48
F8
ENDCHAR
STARTCHAR ae
ENCODING 145
SWIDTH 750 0
DWIDTH 8 0
BBX 7 6 1 0
VVECTOR 5 11
SWIDTH1 0 -1219
DWIDTH1 0 -13
BITMAP 
6C
12
7E
90
92
6C
ENDCHAR
STARTCHAR AE
ENCODING 146
SWIDTH 844 0
DWIDTH 9 0
BBX 8 9 1 0
VVECTOR 6 11
SWIDTH1 0 -1219
DWIDTH1 0 -13
BITMAP 
3F
19
18
2A
2E
2A
78
49
DF
ENDCHAR
STARTCHAR ocircumflex
ENCODING 147
SWIDTH 469 0
DWIDTH 5 0
BBX 4 9 1 0
VVECTOR 4 11
SWIDTH1 0 -1219
DWIDTH1 0 -13
BITMAP 
60
90
00
60
90
90
90
90
60
ENDCHAR
STARTCHAR odieresis
ENCODING 148
SWIDTH 469 0
DWIDTH 5 0
BBX 4 8 1 0
VVECTOR 4 11
SWIDTH1 0 -1219
DWIDTH1 0 -13
BITMAP 
90
00
60
90
90
90
90
60
ENDCHAR
STARTCHAR ograve
ENCODING 149
SWIDTH 469 0
DWIDTH 5 0
BBX 4 9 1 0
VVECTOR 4 11
SWIDTH1 0 -1219
DWIDTH1 0 -13
BITMAP 
40
20
00
60
90
90
90
90
60
ENDCHAR
STARTCHAR ucircumflex
ENCODING 150
SWIDTH 469 0
DWIDTH 5 0
BBX 5 9 0 0
VVECTOR 3 11
SWIDTH1 0 -1219
DWIDTH1 0 -13
BITMAP 
20
50
00
D8
48
48
48
48
38
ENDCHAR
STARTCHAR ugrave
ENCODING 151
SWIDTH 469 0
DWIDTH 5 0
BBX 5 9 0 0
VVECTOR 3 11
SWIDTH1 0 -1219
DWIDTH1 0 -13
BITMAP 
40
20
00
D8
48
48
48
48
38
ENDCHAR
STARTCHAR ydieresis
ENCODING 152
SWIDTH 469 0
DWIDTH 5 0
BBX 4 10 1 -2
VVECTOR 4 11
SWIDTH1 0 -1219
DWIDTH1 0 -13
BITMAP 
90
00
90
90
90
90
60
40
40
80
ENDCHAR
STARTCHAR Odieresis
ENCODING 153
SWIDTH 750 0
DWIDTH 8 0
BBX 5 11 2 0
VVECTOR 5 11
SWIDTH1 0 -1219
DWIDTH1 0 -13
BITMAP 
88
00
70
88
88
88
88
88
88
88
70
ENDCHAR
STARTCHAR Udieresis
ENCODING 154
SWIDTH 750 0
DWIDTH 8 0
BBX 7 11 1 0
VVECTOR 5 11
SWIDTH1 0 -1219
DWIDTH1 0 -13
BITMAP 
44
00
EE
44
44
44
44
44
44
44
38
ENDCHAR
STARTCHAR oslash
ENCODING 155
SWIDTH 469 0
DWIDTH 5 0
BBX 4 6 1 0
VVECTOR 4 11
SWIDTH1 0 -1219
DWIDTH1 0 -13
BITMAP 
70
B0
B0
D0
D0
E0
ENDCHAR
STARTCHAR sterling
ENCODING 156
SWIDTH 469 0
DWIDTH 5 0
BBX 4 9 1 0
VVECTOR 4 11
SWIDTH1 0 -1219
DWIDTH1 0 -13
BITMAP 
40
A0
A0
80
40
E0
40
40
F0
ENDCHAR
STARTCHAR Oslash
ENCODING 157
SWIDTH 750 0
DWIDTH 8 0
BBX 5 9 2 0
VVECTOR 5 11
SWIDTH1 0 -1219
DWIDTH1 0 -13
BITMAP 
78
88
98
98
A8
C8
C8
88
F0
ENDCHAR
STARTCHAR multiply
ENCODING 158
SWIDTH 562 0
DWIDTH 6 0
BBX 5 5 1 2
VVECTOR 4 11
SWIDTH1 0 -1219
DWIDTH1 0 -13
BITMAP 
88
50
20
50
88
ENDCHAR
STARTCHAR florin
ENCODING 159
SWIDTH 562 0
DWIDTH 6 0
BBX 6 12 0 -2
VVECTOR 3 11
SWIDTH1 0 -1219
DWIDTH1 0 -13
BITMAP 
04
0C
08
18
7C
10
10
30
20
20
E0
40
ENDCHAR
STARTCHAR aacute
ENCODING 160
SWIDTH 469 0
DWIDTH 5 0
BBX 4 9 1 0
VVECTOR 4 11
SWIDTH1 0 -1219
DWIDTH1 0 -13
BITMAP 
20
40
00
60
10
70
90
90
70
ENDCHAR
STARTCHAR iacute
ENCODING 161
SWIDTH 188 0
DWIDTH 2 0
BBX 2 9 0 0
VVECTOR 1 11
SWIDTH1 0 -1219
DWIDTH1 0 -13
BITMAP 
40
80
00
C0
40
40
40
40
40
ENDCHAR
STARTCHAR oacute
ENCODING 162
SWIDTH 469 0
DWIDTH 5 0
BBX 4 9 1 0
VVECTOR 4 11
SWIDTH1 0 -1219
DWIDTH1 0 -13
BITMAP 
20
40
00
60
90
90
90
90
60
ENDCHAR
STARTCHAR uacute
ENCODING 163
SWIDTH 469 0
DWIDTH 5 0
BBX 5 9 0 0
VVECTOR 3 11
SWIDTH1 0 -1219
DWIDTH1 0 -13
BITMAP 
10
20
00
D8
48
48
48
48
38
ENDCHAR
STARTCHAR ntilde
ENCODING 164
SWIDTH 469 0
DWIDTH 5 0
BBX 5 9 0 0
VVECTOR 3 11
SWIDTH1 0 -1219
DWIDTH1 0 -13
BITMAP 
28
50
00
B0
48
48
48
48
48
ENDCHAR
STARTCHAR Ntilde
ENCODING 165
SWIDTH 750 0
DWIDTH 8 0
BBX 7 11 1 0
VVECTOR 5 11
SWIDTH1 0 -1219
DWIDTH1 0 -13
BITMAP 
34
58
CE
44
64
64
54
54
4C
4C
E4
ENDCHAR
STARTCHAR ordfeminine
ENCODING 166
SWIDTH 281 0
DWIDTH 3 0
BBX 2 6 1 3
VVECTOR 3 11
SWIDTH1 0 -1219
DWIDTH1 0 -13
BITMAP 
80
40
C0
C0
00
C0
ENDCHAR
STARTCHAR ordmasculine
ENCODING 167
SWIDTH 281 0
DWIDTH 3 0
BBX 2 6 1 3
VVECTOR 3 11
SWIDTH1 0 -1219
DWIDTH1 0 -13
BITMAP 
C0
C0
C0
C0
00
C0
ENDCHAR
STARTCHAR questiondown
ENCODING 168
SWIDTH 469 0
DWIDTH 5 0
BBX 4 9 0 -2
VVECTOR 2 11
SWIDTH1 0 -1219
DWIDTH1 0 -13
BITMAP 
20
00
20
20
40
80
90
90
60
ENDCHAR
STARTCHAR registered
ENCODING 169
SWIDTH 750 0
DWIDTH 8 0
BBX 7 8 1 1
VVECTOR 5 11
SWIDTH1 0 -1219
DWIDTH1 0 -13
BITMAP 
38
44
B2
AA
B2
AA
44
38
ENDCHAR
STARTCHAR logicalnot
ENCODING 170
SWIDTH 562 0
DWIDTH 6 0
BBX 5 2 1 3
VVECTOR 4 11
SWIDTH1 0 -1219
DWIDTH1 0 -13
BITMAP 
F8
08
ENDCHAR
STARTCHAR onehalf
ENCODING 171
SWIDTH 750 0
DWIDTH 8 0
BBX 7 9 1 0
VVECTOR 5 11
SWIDTH1 0 -1219
DWIDTH1 0 -13
BITMAP 
40
C2
44
48
FC
22
44
88
0E
ENDCHAR
STARTCHAR onequarter
ENCODING 172
SWIDTH 750 0
DWIDTH 8 0
BBX 7 9 1 0
VVECTOR 5 11
SWIDTH1 0 -1219
DWIDTH1 0 -13
BITMAP 
40
C2
44
48
F2
26
4A
8E
02
ENDCHAR
STARTCHAR exclamdown
ENCODING 173
SWIDTH 281 0
DWIDTH 3 0
BBX 1 9 1 -2
VVECTOR 2 11
SWIDTH1 0 -1219
DWIDTH1 0 -13
BITMAP 
80
00
00
80
80
80
80
80
80
ENDCHAR
STARTCHAR guillemotleft
ENCODING 174
SWIDTH 469 0
DWIDTH 5 0
BBX 4 4 1 0
VVECTOR 4 11
SWIDTH1 0 -1219
DWIDTH1 0 -13
BITMAP 
50
A0
A0
50
ENDCHAR
STARTCHAR guillemotright
ENCODING 175
SWIDTH 469 0
DWIDTH 5 0
BBX 4 4 1 0
VVECTOR 4 11
SWIDTH1 0 -1219
DWIDTH1 0 -13
BITMAP 
A0
50
50
A0
ENDCHAR
STARTCHAR ltshade
ENCODING 176
SWIDTH 656 0
DWIDTH 7 0
BBX 7 13 0 -2
VVECTOR 4 11
SWIDTH1 0 -1219
DWIDTH1 0 -13
BITMAP 
AA
00
AA
00
AA
00
AA
00
AA
00
AA
00
AA
ENDCHAR
STARTCHAR shade
ENCODING 177
SWIDTH 656 0
DWIDTH 7 0
BBX 7 13 0 -2
VVECTOR 4 11
SWIDTH1 0 -1219
DWIDTH1 0 -13
BITMAP 
88
22
88
22
88
22
88
22
88
22
88
22
88
ENDCHAR
STARTCHAR dkshade
ENCODING 178
SWIDTH 656 0
DWIDTH 7 0
BBX 7 13 0 -2
VVECTOR 4 11
SWIDTH1 0 -1219
DWIDTH1 0 -13
BITMAP 
AA
54
AA
54
AA
54
AA
54
AA
54
AA
54
AA
ENDCHAR
STARTCHAR SF110000
ENCODING 179
SWIDTH 656 0
DWIDTH 7 0
BBX 1 13 3 -2
VVECTOR 4 11
SWIDTH1 0 -1219
DWIDTH1 0 -13
BITMAP 
80
80
80
80
80
80
80
80
80
80
80
80
80
ENDCHAR
STARTCHAR SF090000
ENCODING 180
SWIDTH 656 0
DWIDTH 7 0
BBX 4 13 0 -2
VVECTOR 1 11
SWIDTH1 0 -1219
DWIDTH1 0 -13
BITMAP 
10
10
10
10
10
10
F0
10
10
10
10
10
10
ENDCHAR
STARTCHAR Aacute
ENCODING 181
SWIDTH 750 0
DWIDTH 8 0
BBX 7 11 1 0
VVECTOR 5 11
SWIDTH1 0 -1219
DWIDTH1 0 -13
BITMAP 
08
10
00
10
10
28
28
44
7C
44
EE
ENDCHAR
STARTCHAR Acircumflex
ENCODING 182
SWIDTH 750 0
DWIDTH 8 0
BBX 7 11 1 0
VVECTOR 5 11
SWIDTH1 0 -1219
DWIDTH1 0 -13
BITMAP 
10
28
00
10
10
28
28
44
7C
44
EE
ENDCHAR
STARTCHAR Agrave
ENCODING 183
SWIDTH 750 0
DWIDTH 8 0
BBX 7 11 1 0
VVECTOR 5 11
SWIDTH1 0 -1219
DWIDTH1 0 -13
BITMAP 
20
10
00
10
10
28
28
44
7C
44
EE
ENDCHAR
STARTCHAR copyright
ENCODING 184
SWIDTH 750 0
DWIDTH 8 0
BBX 7 8 1 1
VVECTOR 5 11
SWIDTH1 0 -1219
DWIDTH1 0 -13
BITMAP 
38
44
BA
A2
A2
BA
44
38
ENDCHAR
STARTCHAR SF230000
ENCODING 185
SWIDTH 656 0
DWIDTH 7 0
BBX 5 13 0 -2
VVECTOR 2 11
SWIDTH1 0 -1219
DWIDTH1 0 -13
BITMAP 
28
28
28
28
28
E8
08
E8
28
28
28
28
28
ENDCHAR
STARTCHAR SF240000
ENCODING 186
SWIDTH 656 0
DWIDTH 7 0
BBX 3 13 2 -2
VVECTOR 4 11
SWIDTH1 0 -1219
DWIDTH1 0 -13
BITMAP 
A0
A0
A0
A0
A0
A0
A0
A0
A0
A0
A0
A0
A0
ENDCHAR
STARTCHAR SF250000
ENCODING 187
SWIDTH 656 0
DWIDTH 7 0
BBX 5 8 0 -2
VVECTOR 2 11
SWIDTH1 0 -1219
DWIDTH1 0 -13
BITMAP 
F8
08
E8
28
28
28
28
28
ENDCHAR
STARTCHAR SF260000
ENCODING 188
SWIDTH 656 0
DWIDTH 7 0
BBX 5 8 0 3
VVECTOR 2 11
SWIDTH1 0 -1219
DWIDTH1 0 -13
BITMAP 
28
28
28
28
28
E8
08
F8
ENDCHAR
STARTCHAR cent
ENCODING 189
SWIDTH 469 0
DWIDTH 5 0
BBX 4 8 1 -1
VVECTOR 4 11
SWIDTH1 0 -1219
DWIDTH1 0 -13
BITMAP 
20
60
90
80
80
90
60
40
ENDCHAR
STARTCHAR yen
ENCODING 190
SWIDTH 469 0
DWIDTH 5 0
BBX 5 9 0 0
VVECTOR 3 11
SWIDTH1 0 -1219
DWIDTH1 0 -13
BITMAP 
D8
88
50
F8
20
F8
20
20
70
ENDCHAR
STARTCHAR SF030000
ENCODING 191
SWIDTH 656 0
DWIDTH 7 0
BBX 4 7 0 -2
VVECTOR 1 11
SWIDTH1 0 -1219
DWIDTH1 0 -13
BITMAP 
F0
10
10
10
10
10
10
ENDCHAR
STARTCHAR SF020000
ENCODING 192
SWIDTH 656 0
DWIDTH 7 0
BBX 4 7 3 4
VVECTOR 7 11
SWIDTH1 0 -1219
DWIDTH1 0 -13
BITMAP 
80
80
80
80
80
80
F0
ENDCHAR
STARTCHAR SF070000
ENCODING 193
SWIDTH 656 0
DWIDTH 7 0
BBX 7 7 0 4
VVECTOR 4 11
SWIDTH1 0 -1219
DWIDTH1 0 -13
BITMAP 
10
10
10
10
10
10
FE
ENDCHAR
STARTCHAR SF060000
ENCODING 194
SWIDTH 656 0
DWIDTH 7 0
BBX 7 7 0 -2
VVECTOR 4 11
SWIDTH1 0 -1219
DWIDTH1 0 -13
BITMAP 
FE
10
10
10
10
10
10
ENDCHAR
STARTCHAR SF080000
ENCODING 195
SWIDTH 656 0
DWIDTH 7 0
BBX 4 13 3 -2
VVECTOR 7 11
SWIDTH1 0 -1219
DWIDTH1 0 -13
BITMAP 
80
80
80
80
80
80
F0
80
80
80
80
80
80
ENDCHAR
STARTCHAR SF100000
ENCODING 196
SWIDTH 656 0
DWIDTH 7 0
BBX 7 1 0 4
VVECTOR 4 11
SWIDTH1 0 -1219
DWIDTH1 0 -13
BITMAP 
FE
ENDCHAR
STARTCHAR SF050000
ENCODING 197
SWIDTH 656 0
DWIDTH 7 0
BBX 7 13 0 -2
VVECTOR 4 11
SWIDTH1 0 -1219
DWIDTH1 0 -13
BITMAP 
10
10
10
10
10
10
FE
10
10
10
10
10
10
ENDCHAR
STARTCHAR atilde
ENCODING 198
SWIDTH 469 0
DWIDTH 5 0
BBX 4 9 1 0
VVECTOR 4 11
SWIDTH1 0 -1219
DWIDTH1 0 -13
BITMAP 
50
A0
00
60
10
70
90
90
70
ENDCHAR
STARTCHAR Atilde
ENCODING 199
SWIDTH 750 0
DWIDTH 8 0
BBX 7 11 1 0
VVECTOR 5 11
SWIDTH1 0 -1219
DWIDTH1 0 -13
BITMAP 
34
58
10
10
28
28
28
44
7C
44
EE
ENDCHAR
STARTCHAR SF380000
ENCODING 200
SWIDTH 656 0
DWIDTH 7 0
BBX 5 8 2 3
VVECTOR 6 11
SWIDTH1 0 -1219
DWIDTH1 0 -13
BITMAP 
A0
A0
A0
A0
A0
B8
80
F8
ENDCHAR
STARTCHAR SF390000
ENCODING 201
SWIDTH 656 0
DWIDTH 7 0
BBX 5 8 2 -2
VVECTOR 6 11
SWIDTH1 0 -1219
DWIDTH1 0 -13
BITMAP 
F8
80
B8
A0
A0
A0
A0
A0
ENDCHAR
STARTCHAR SF400000
ENCODING 202
SWIDTH 656 0
DWIDTH 7 0
BBX 7 8 0 3
VVECTOR 4 11
SWIDTH1 0 -1219
DWIDTH1 0 -13
BITMAP 
28
28
28
28
28
EE
00
FE
ENDCHAR
STARTCHAR SF410000
ENCODING 203
SWIDTH 656 0
DWIDTH 7 0
BBX 7 8 0 -2
VVECTOR 4 11
SWIDTH1 0 -1219
DWIDTH1 0 -13
BITMAP 
FE
00
EE
28
28
28
28
28
ENDCHAR
STARTCHAR SF420000
ENCODING 204
SWIDTH 656 0
DWIDTH 7 0
BBX 5 13 2 -2
VVECTOR 6 11
SWIDTH1 0 -1219
DWIDTH1 0 -13
BITMAP 
A0
A0
A0
A0
A0
B8
80
B8
A0
A0
A0
A0
A0
ENDCHAR
STARTCHAR SF430000
ENCODING 205
SWIDTH 656 0
DWIDTH 7 0
BBX 7 3 0 3
VVECTOR 4 11
SWIDTH1 0 -1219
DWIDTH1 0 -13
BITMAP 
FE
00
FE
ENDCHAR
STARTCHAR SF440000
ENCODING 206
SWIDTH 656 0
DWIDTH 7 0
BBX 7 13 0 -2
VVECTOR 4 11
SWIDTH1 0 -1219
DWIDTH1 0 -13
BITMAP 
28
28
28
28
28
EE
00
EE
28
28
28
28
28
ENDCHAR
STARTCHAR currency
ENCODING 207
SWIDTH 469 0
DWIDTH 5 0
BBX 4 4 1 3
VVECTOR 4 11
SWIDTH1 0 -1219
DWIDTH1 0 -13
BITMAP 
90
60
60
90
ENDCHAR
STARTCHAR eth
ENCODING 208
SWIDTH 469 0
DWIDTH 5 0
BBX 4 9 1 0
VVECTOR 4 11
SWIDTH1 0 -1219
DWIDTH1 0 -13
BITMAP 
A0
40
A0
10
70
90
90
90
60
ENDCHAR
STARTCHAR Eth
ENCODING 209
SWIDTH 750 0
DWIDTH 8 0
BBX 6 9 1 0
VVECTOR 4 11
SWIDTH1 0 -1219
DWIDTH1 0 -13
BITMAP 
F0
48
44
44
E4
44
44
48
F0
ENDCHAR
STARTCHAR Ecircumflex
ENCODING 210
SWIDTH 656 0
DWIDTH 7 0
BBX 5 11 1 0
VVECTOR 4 11
SWIDTH1 0 -1219
DWIDTH1 0 -13
BITMAP 
20
50
F8
48
40
50
70
50
40
48
F8
ENDCHAR
STARTCHAR Edieresis
ENCODING 211
SWIDTH 656 0
DWIDTH 7 0
BBX 5 11 1 0
VVECTOR 4 11
SWIDTH1 0 -1219
DWIDTH1 0 -13
BITMAP 
48
00
F8
48
40
50
70
50
40
48
F8
ENDCHAR
STARTCHAR Egrave
ENCODING 212
SWIDTH 656 0
DWIDTH 7 0
BBX 5 11 1 0
VVECTOR 4 11
SWIDTH1 0 -1219
DWIDTH1 0 -13
BITMAP 
40
20
F8
48
40
50
70
50
40
48
F8
ENDCHAR
STARTCHAR Euro
ENCODING 213
SWIDTH 188 0
DWIDTH 2 0
BBX 2 6 0 0
VVECTOR 1 11
SWIDTH1 0 -1219
DWIDTH1 0 -13
BITMAP 
C0
40
40
40
40
40
ENDCHAR
STARTCHAR Iacute
ENCODING 214
SWIDTH 375 0
DWIDTH 4 0
BBX 3 11 1 0
VVECTOR 3 11
SWIDTH1 0 -1219
DWIDTH1 0 -13
BITMAP 
20
40
E0
40
40
40
40
40
40
40
E0
ENDCHAR
STARTCHAR Icircumflex
ENCODING 215
SWIDTH 375 0
DWIDTH 4 0
BBX 3 11 1 0
VVECTOR 3 11
SWIDTH1 0 -1219
DWIDTH1 0 -13
BITMAP 
40
A0
00
E0
40
40
40
40
40
40
E0
ENDCHAR
STARTCHAR Idieresis
ENCODING 216
SWIDTH 375 0
DWIDTH 4 0
BBX 3 11 1 0
VVECTOR 3 11
SWIDTH1 0 -1219
DWIDTH1 0 -13
BITMAP 
A0
00
E0
40
40
40
40
40
40
40
E0
ENDCHAR
STARTCHAR SF040000
ENCODING 217
SWIDTH 656 0
DWIDTH 7 0
BBX 4 7 0 4
VVECTOR 1 11
SWIDTH1 0 -1219
DWIDTH1 0 -13
BITMAP 
10
10
10
10
10
10
F0
ENDCHAR
STARTCHAR SF010000
ENCODING 218
SWIDTH 656 0
DWIDTH 7 0
BBX 4 7 3 -2
VVECTOR 7 11
SWIDTH1 0 -1219
DWIDTH1 0 -13
BITMAP 
F0
80
80
80
80
80
80
ENDCHAR
STARTCHAR block
ENCODING 219
SWIDTH 656 0
DWIDTH 7 0
BBX 7 13 0 -2
VVECTOR 4 11
SWIDTH1 0 -1219
DWIDTH1 0 -13
BITMAP 
FE
FE
FE
FE
FE
FE
FE
FE
FE
FE
FE
FE
FE
ENDCHAR
STARTCHAR dnblock
ENCODING 220
SWIDTH 656 0
DWIDTH 7 0
BBX 7 7 0 -2
VVECTOR 4 11
SWIDTH1 0 -1219
DWIDTH1 0 -13
BITMAP 
FE
FE
FE
FE
FE
FE
FE
ENDCHAR
STARTCHAR brokenbar
ENCODING 221
SWIDTH 188 0
DWIDTH 2 0
BBX 1 11 1 -2
VVECTOR 2 11
SWIDTH1 0 -1219
DWIDTH1 0 -13
BITMAP 
80
80
80
80
80
00
80
80
80
80
80
ENDCHAR
STARTCHAR Igrave
ENCODING 222
SWIDTH 375 0
DWIDTH 4 0
BBX 3 11 1 0
VVECTOR 3 11
SWIDTH1 0 -1219
DWIDTH1 0 -13
BITMAP 
80
40
E0
40
40
40
40
40
40
40
E0
ENDCHAR
STARTCHAR upblock
ENCODING 223
SWIDTH 656 0
DWIDTH 7 0
BBX 7 6 0 5
VVECTOR 4 11
SWIDTH1 0 -1219
DWIDTH1 0 -13
BITMAP 
FE
FE
FE
FE
FE
FE
ENDCHAR
STARTCHAR Oacute
ENCODING 224
SWIDTH 750 0
DWIDTH 8 0
BBX 5 11 2 0
VVECTOR 5 11
SWIDTH1 0 -1219
DWIDTH1 0 -13
BITMAP 
10
20
70
88
88
88
88
88
88
88
70
ENDCHAR
STARTCHAR germandbls
ENCODING 225
SWIDTH 469 0
DWIDTH 5 0
BBX 4 9 1 0
VVECTOR 4 11
SWIDTH1 0 -1219
DWIDTH1 0 -13
BITMAP 
60
90
90
90
A0
90
90
90
A0
ENDCHAR
STARTCHAR Ocircumflex
ENCODING 226
SWIDTH 750 0
DWIDTH 8 0
BBX 5 11 2 0
VVECTOR 5 11
SWIDTH1 0 -1219
DWIDTH1 0 -13
BITMAP 
20
50
70
88
88
88
88
88
88
88
70
ENDCHAR
STARTCHAR Ograve
ENCODING 227
SWIDTH 750 0
DWIDTH 8 0
BBX 5 11 2 0
VVECTOR 5 11
SWIDTH1 0 -1219
DWIDTH1 0 -13
BITMAP 
40
20
70
88
88
88
88
88
88
88
70
ENDCHAR
STARTCHAR otilde
ENCODING 228
SWIDTH 469 0
DWIDTH 5 0
BBX 4 9 1 0
VVECTOR 4 11
SWIDTH1 0 -1219
DWIDTH1 0 -13
BITMAP 
50
A0
00
60
90
90
90
90
60
ENDCHAR
STARTCHAR Otilde
ENCODING 229
SWIDTH 750 0
DWIDTH 8 0
BBX 5 11 2 0
VVECTOR 5 11
SWIDTH1 0 -1219
DWIDTH1 0 -13
BITMAP 
68
B0
70
88
88
88
88
88
88
88
70
ENDCHAR
STARTCHAR mu
ENCODING 230
SWIDTH 562 0
DWIDTH 6 0
BBX 5 6 1 -2
VVECTOR 4 11
SWIDTH1 0 -1219
DWIDTH1 0 -13
BITMAP 
90
90
90
E8
80
80
ENDCHAR
STARTCHAR thorn
ENCODING 231
SWIDTH 469 0
DWIDTH 5 0
BBX 5 11 0 -2
VVECTOR 3 11
SWIDTH1 0 -1219
DWIDTH1 0 -13
BITMAP 
C0
40
40
70
48
48
48
48
70
40
E0
ENDCHAR
STARTCHAR Thorn
ENCODING 232
SWIDTH 562 0
DWIDTH 6 0
BBX 5 9 1 0
VVECTOR 4 11
SWIDTH1 0 -1219
DWIDTH1 0 -13
BITMAP 
C0
40
70
48
48
48
70
40
E0
ENDCHAR
STARTCHAR Uacute
ENCODING 233
SWIDTH 750 0
DWIDTH 8 0
BBX 7 11 1 0
VVECTOR 5 11
SWIDTH1 0 -1219
DWIDTH1 0 -13
BITMAP 
08
10
EE
44
44
44
44
44
44
44
38
ENDCHAR
STARTCHAR Ucircumflex
ENCODING 234
SWIDTH 750 0
DWIDTH 8 0
BBX 7 11 1 0
VVECTOR 5 11
SWIDTH1 0 -1219
DWIDTH1 0 -13
BITMAP 
10
28
EE
44
44
44
44
44
44
44
38
ENDCHAR
STARTCHAR Ugrave
ENCODING 235
SWIDTH 750 0
DWIDTH 8 0
BBX 7 11 1 0
VVECTOR 5 11
SWIDTH1 0 -1219
DWIDTH1 0 -13
BITMAP 
20
10
EE
44
44
44
44
44
44
44
38
ENDCHAR
STARTCHAR yacute
ENCODING 236
SWIDTH 469 0
DWIDTH 5 0
BBX 4 11 1 -2
VVECTOR 4 11
SWIDTH1 0 -1219
DWIDTH1 0 -13
BITMAP 
20
40
00
90
90
90
90
60
40
40
80
ENDCHAR
STARTCHAR Yacute
ENCODING 237
SWIDTH 750 0
DWIDTH 8 0
BBX 7 11 1 0
VVECTOR 5 11
SWIDTH1 0 -1219
DWIDTH1 0 -13
BITMAP 
08
10
EE
44
44
28
28
10
10
10
38
ENDCHAR
STARTCHAR macron
ENCODING 238
SWIDTH 469 0
DWIDTH 5 0
BBX 5 1 0 10
VVECTOR 3 11
SWIDTH1 0 -1219
DWIDTH1 0 -13
BITMAP 
F8
ENDCHAR
STARTCHAR acute
ENCODING 239
SWIDTH 281 0
DWIDTH 3 0
BBX 2 2 1 7
VVECTOR 3 11
SWIDTH1 0 -1219
DWIDTH1 0 -13
BITMAP 
40
80
ENDCHAR
STARTCHAR uni00AD
ENCODING 240
SWIDTH 281 0
DWIDTH 3 0
BBX 2 1 1 3
VVECTOR 3 11
SWIDTH1 0 -1219
DWIDTH1 0 -13
BITMAP 
C0
ENDCHAR
STARTCHAR plusminus
ENCODING 241
SWIDTH 562 0
DWIDTH 6 0
BBX 5 7 1 0
VVECTOR 4 11
SWIDTH1 0 -1219
DWIDTH1 0 -13
BITMAP 
20
20
F8
20
20
00
F8
ENDCHAR
STARTCHAR underscoredbl
ENCODING 242
SWIDTH 562 0
DWIDTH 6 0
BBX 6 3 0 -2
VVECTOR 3 11
SWIDTH1 0 -1219
DWIDTH1 0 -13
BITMAP 
FC
00
FC
ENDCHAR
STARTCHAR threequarters
ENCODING 243
SWIDTH 750 0
DWIDTH 8 0
BBX 7 9 1 0
VVECTOR 5 11
SWIDTH1 0 -1219
DWIDTH1 0 -13
BITMAP 
C0
22
44
28
D2
26
4A
8E
02
ENDCHAR
STARTCHAR paragraph
ENCODING 244
SWIDTH 562 0
DWIDTH 6 0
BBX 6 9 0 0
VVECTOR 3 11
SWIDTH1 0 -1219
DWIDTH1 0 -13
BITMAP 
7C
E8
E8
E8
68
28
28
28
28
ENDCHAR
STARTCHAR section
ENCODING 245
SWIDTH 469 0
DWIDTH 5 0
BBX 4 11 1 -2
VVECTOR 4 11
SWIDTH1 0 -1219
DWIDTH1 0 -13
BITMAP 
60
90
80
40
A0
90
50
20
90
90
60
ENDCHAR
STARTCHAR divide
ENCODING 246
SWIDTH 562 0
DWIDTH 6 0
BBX 5 5 1 2
VVECTOR 4 11
SWIDTH1 0 -1219
DWIDTH1 0 -13
BITMAP 
20
00
F8
00
20
ENDCHAR
STARTCHAR cedilla
ENCODING 247
SWIDTH 281 0
DWIDTH 3 0
BBX 2 2 1 -2
VVECTOR 3 11
SWIDTH1 0 -1219
DWIDTH1 0 -13
BITMAP 
40
C0
ENDCHAR
STARTCHAR degree
ENCODING 248
SWIDTH 281 0
DWIDTH 3 0
BBX 3 3 0 6
VVECTOR 2 11
SWIDTH1 0 -1219
DWIDTH1 0 -13
BITMAP 
40
A0
40
ENDCHAR
STARTCHAR dieresis
ENCODING 249
SWIDTH 281 0
DWIDTH 3 0
BBX 3 1 0 8
VVECTOR 2 11
SWIDTH1 0 -1219
DWIDTH1 0 -13
BITMAP 
A0
ENDCHAR
STARTCHAR periodcentered
ENCODING 250
SWIDTH 188 0
DWIDTH 2 0
BBX 1 1 1 4
VVECTOR 2 11
SWIDTH1 0 -1219
DWIDTH1 0 -13
BITMAP 
80
ENDCHAR
STARTCHAR uni00B9
ENCODING 251
SWIDTH 281 0
DWIDTH 3 0
BBX 3 5 0 4
VVECTOR 2 11
SWIDTH1 0 -1219
DWIDTH1 0 -13
BITMAP 
40
C0
40
40
E0
ENDCHAR
STARTCHAR uni00B3
ENCODING 252
SWIDTH 281 0
DWIDTH 3 0
BBX 3 5 0 4
VVECTOR 2 11
SWIDTH1 0 -1219
DWIDTH1 0 -13
BITMAP 
C0
20
40
20
C0
ENDCHAR
STARTCHAR uni00B2
ENCODING 253
SWIDTH 281 0
DWIDTH 3 0
BBX 3 5 0 4
VVECTOR 2 11
SWIDTH1 0 -1219
DWIDTH1 0 -13
BITMAP 
C0
20
40
80
E0
ENDCHAR
STARTCHAR filledbox
ENCODING 254
SWIDTH 844 0
DWIDTH 9 0
BBX 9 9 0 0
VVECTOR 5 11
SWIDTH1 0 -1219
DWIDTH1 0 -13
BITMAP 
FF80
FF80
FF80
FF80
FF80
FF80
FF80
FF80
FF80
ENDCHAR
STARTCHAR uni00A0
ENCODING 255
SWIDTH 188 0
DWIDTH 2 0
BBX 0 0 2 11
VVECTOR 3 11
SWIDTH1 0 -1219
DWIDTH1 0 -13
BITMAP 
ENDCHAR
STARTCHAR peseta
ENCODING 256
SWIDTH 1125 0
DWIDTH 12 0
BBX 11 9 1 0
VVECTOR 7 11
SWIDTH1 0 -1219
DWIDTH1 0 -13
BITMAP 
F000
4800
4A00
4A00
7760
4280
4240
4220
E2C0
ENDCHAR
STARTCHAR revlogicalnot
ENCODING 257
SWIDTH 562 0
DWIDTH 6 0
BBX 5 4 1 0
VVECTOR 4 11
SWIDTH1 0 -1219
DWIDTH1 0 -13
BITMAP 
F8
80
80
80
ENDCHAR
STARTCHAR SF190000
ENCODING 258
SWIDTH 656 0
DWIDTH 7 0
BBX 4 13 0 -2
VVECTOR 1 11
SWIDTH1 0 -1219
DWIDTH1 0 -13
BITMAP 
10
10
10
10
10
F0
10
F0
10
10
10
10
10
ENDCHAR
STARTCHAR SF200000
ENCODING 259
SWIDTH 656 0
DWIDTH 7 0
BBX 5 13 0 -2
VVECTOR 2 11
SWIDTH1 0 -1219
DWIDTH1 0 -13
BITMAP 
28
28
28
28
28
28
E8
28
28
28
28
28
28
ENDCHAR
STARTCHAR SF210000
ENCODING 260
SWIDTH 656 0
DWIDTH 7 0
BBX 5 7 0 -2
VVECTOR 2 11
SWIDTH1 0 -1219
DWIDTH1 0 -13
BITMAP 
F8
28
28
28
28
28
28
ENDCHAR
STARTCHAR SF220000
ENCODING 261
SWIDTH 656 0
DWIDTH 7 0
BBX 4 8 0 -2
VVECTOR 1 11
SWIDTH1 0 -1219
DWIDTH1 0 -13
BITMAP 
F0
10
F0
10
10
10
10
10
ENDCHAR
STARTCHAR SF270000
ENCODING 262
SWIDTH 656 0
DWIDTH 7 0
BBX 5 7 0 4
VVECTOR 2 11
SWIDTH1 0 -1219
DWIDTH1 0 -13
BITMAP 
28
28
28
28
28
28
F8
ENDCHAR
STARTCHAR SF280000
ENCODING 263
SWIDTH 656 0
DWIDTH 7 0
BBX 4 8 0 3
VVECTOR 1 11
SWIDTH1 0 -1219
DWIDTH1 0 -13
BITMAP 
10
10
10
10
10
F0
10
F0
ENDCHAR
STARTCHAR SF360000
ENCODING 264
SWIDTH 656 0
DWIDTH 7 0
BBX 4 13 3 -2
VVECTOR 7 11
SWIDTH1 0 -1219
DWIDTH1 0 -13
BITMAP 
80
80
80
80
80
F0
80
F0
80
80
80
80
80
ENDCHAR
STARTCHAR SF370000
ENCODING 265
SWIDTH 656 0
DWIDTH 7 0
BBX 5 13 2 -2
VVECTOR 6 11
SWIDTH1 0 -1219
DWIDTH1 0 -13
BITMAP 
A0
A0
A0
A0
A0
A0
B8
A0
A0
A0
A0
A0
A0
ENDCHAR
STARTCHAR SF450000
ENCODING 266
SWIDTH 656 0
DWIDTH 7 0
BBX 7 8 0 3
VVECTOR 4 11
SWIDTH1 0 -1219
DWIDTH1 0 -13
BITMAP 
10
10
10
10
10
FE
00
FE
ENDCHAR
STARTCHAR SF460000
ENCODING 267
SWIDTH 656 0
DWIDTH 7 0
BBX 7 7 0 4
VVECTOR 4 11
SWIDTH1 0 -1219
DWIDTH1 0 -13
BITMAP 
28
28
28
28
28
28
FE
ENDCHAR
STARTCHAR SF470000
ENCODING 268
SWIDTH 656 0
DWIDTH 7 0
BBX 7 8 0 -2
VVECTOR 4 11
SWIDTH1 0 -1219
DWIDTH1 0 -13
BITMAP 
FE
00
FE
10
10
10
10
10
ENDCHAR
STARTCHAR SF480000
ENCODING 269
SWIDTH 656 0
DWIDTH 7 0
BBX 7 7 0 -2
VVECTOR 4 11
SWIDTH1 0 -1219
DWIDTH1 0 -13
BITMAP 
FE
28
28
28
28
28
28
ENDCHAR
STARTCHAR SF490000
ENCODING 270
SWIDTH 656 0
DWIDTH 7 0
BBX 5 7 2 4
VVECTOR 6 11
SWIDTH1 0 -1219
DWIDTH1 0 -13
BITMAP 
A0
A0
A0
A0
A0
A0
F8
ENDCHAR
STARTCHAR SF500000
ENCODING 271
SWIDTH 656 0
DWIDTH 7 0
BBX 4 8 3 3
VVECTOR 7 11
SWIDTH1 0 -1219
DWIDTH1 0 -13
BITMAP 
80
80
80
80
80
F0
80
F0
ENDCHAR
STARTCHAR SF510000
ENCODING 272
SWIDTH 656 0
DWIDTH 7 0
BBX 4 8 3 -2
VVECTOR 7 11
SWIDTH1 0 -1219
DWIDTH1 0 -13
BITMAP 
F0
80
F0
80
80
80
80
80
ENDCHAR
STARTCHAR SF520000
ENCODING 273
SWIDTH 656 0
DWIDTH 7 0
BBX 5 7 2 -2
VVECTOR 6 11
SWIDTH1 0 -1219
DWIDTH1 0 -13
BITMAP 
F8
A0
A0
A0
A0
A0
A0
ENDCHAR
STARTCHAR SF530000
ENCODING 274
SWIDTH 656 0
DWIDTH 7 0
BBX 7 13 0 -2
VVECTOR 4 11
SWIDTH1 0 -1219
DWIDTH1 0 -13
BITMAP 
28
28
28
28
28
28
FE
28
28
28
28
28
28
ENDCHAR
STARTCHAR SF540000
ENCODING 275
SWIDTH 656 0
DWIDTH 7 0
BBX 7 13 0 -2
VVECTOR 4 11
SWIDTH1 0 -1219
DWIDTH1 0 -13
BITMAP 
10
10
10
10
10
FE
10
FE
10
10
10
10
10
ENDCHAR
STARTCHAR lfblock
ENCODING 276
SWIDTH 656 0
DWIDTH 7 0
BBX 4 13 0 -2
VVECTOR 1 11
SWIDTH1 0 -1219
DWIDTH1 0 -13
BITMAP 
F0
F0
F0
F0
F0
F0
F0
F0
F0
F0
F0
F0
F0
ENDCHAR
STARTCHAR rtblock
ENCODING 277
SWIDTH 656 0
DWIDTH 7 0
BBX 3 13 4 -2
VVECTOR 8 11
SWIDTH1 0 -1219
DWIDTH1 0 -13
BITMAP 
E0
E0
E0
E0
E0
E0
E0
E0
E0
E0
E0
E0
E0
ENDCHAR
STARTCHAR alpha
ENCODING 278
SWIDTH 656 0
DWIDTH 7 0
BBX 5 6 2 0
VVECTOR 6 11
SWIDTH1 0 -1219
DWIDTH1 0 -13
BITMAP 
68
98
90
90
98
68
ENDCHAR
STARTCHAR Gamma
ENCODING 279
SWIDTH 562 0
DWIDTH 6 0
BBX 5 9 1 0
VVECTOR 4 11
SWIDTH1 0 -1219
DWIDTH1 0 -13
BITMAP 
F8
48
48
40
40
40
40
40
E0
ENDCHAR
STARTCHAR pi
ENCODING 280
SWIDTH 562 0
DWIDTH 6 0
BBX 6 6 0 0
VVECTOR 3 11
SWIDTH1 0 -1219
DWIDTH1 0 -13
BITMAP 
7C
A8
28
28
68
4C
ENDCHAR
STARTCHAR Sigma
ENCODING 281
SWIDTH 656 0
DWIDTH 7 0
BBX 6 9 1 0
VVECTOR 5 11
SWIDTH1 0 -1219
DWIDTH1 0 -13
BITMAP 
FC
44
20
10
08
10
20
44
FC
ENDCHAR
STARTCHAR sigma
ENCODING 282
SWIDTH 562 0
DWIDTH 6 0
BBX 4 6 2 0
VVECTOR 5 11
SWIDTH1 0 -1219
DWIDTH1 0 -13
BITMAP 
70
A0
90
90
90
60
ENDCHAR
STARTCHAR tau
ENCODING 283
SWIDTH 469 0
DWIDTH 5 0
BBX 5 6 0 0
VVECTOR 3 11
SWIDTH1 0 -1219
DWIDTH1 0 -13
BITMAP 
78
A0
20
20
20
30
ENDCHAR
STARTCHAR Phi
ENCODING 284
SWIDTH 750 0
DWIDTH 8 0
BBX 7 10 1 0
VVECTOR 5 11
SWIDTH1 0 -1219
DWIDTH1 0 -13
BITMAP 
38
10
7C
92
92
92
92
7C
10
38
ENDCHAR
STARTCHAR Theta
ENCODING 285
SWIDTH 750 0
DWIDTH 8 0
BBX 7 9 1 0
VVECTOR 5 11
SWIDTH1 0 -1219
DWIDTH1 0 -13
BITMAP 
38
44
82
AA
BA
AA
82
44
38
ENDCHAR
STARTCHAR uni03A9
ENCODING 286
SWIDTH 750 0
DWIDTH 8 0
BBX 7 9 1 0
VVECTOR 5 11
SWIDTH1 0 -1219
DWIDTH1 0 -13
BITMAP 
38
44
82
82
82
82
44
AA
EE
ENDCHAR
STARTCHAR delta
ENCODING 287
SWIDTH 562 0
DWIDTH 6 0
BBX 4 9 2 0
VVECTOR 5 11
SWIDTH1 0 -1219
DWIDTH1 0 -13
BITMAP 
E0
90
40
60
90
90
90
90
60
ENDCHAR
STARTCHAR infinity
ENCODING 288
SWIDTH 750 0
DWIDTH 8 0
BBX 7 5 1 2
VVECTOR 5 11
SWIDTH1 0 -1219
DWIDTH1 0 -13
BITMAP 
6C
BA
92
BA
6C
ENDCHAR
STARTCHAR phi1
ENCODING 289
SWIDTH 656 0
DWIDTH 7 0
BBX 5 11 2 -2
VVECTOR 6 11
SWIDTH1 0 -1219
DWIDTH1 0 -13
BITMAP 
20
20
20
70
A8
A8
A8
A8
70
20
20
ENDCHAR
STARTCHAR epsilon
ENCODING 290
SWIDTH 562 0
DWIDTH 6 0
BBX 4 6 2 0
VVECTOR 5 11
SWIDTH1 0 -1219
DWIDTH1 0 -13
BITMAP 
70
80
60
80
90
60
ENDCHAR
STARTCHAR intersection
ENCODING 291
SWIDTH 750 0
DWIDTH 8 0
BBX 6 8 1 0
VVECTOR 4 11
SWIDTH1 0 -1219
DWIDTH1 0 -13
BITMAP 
78
CC
84
84
84
84
84
84
ENDCHAR
STARTCHAR equivalence
ENCODING 292
SWIDTH 562 0
DWIDTH 6 0
BBX 5 5 1 2
VVECTOR 4 11
SWIDTH1 0 -1219
DWIDTH1 0 -13
BITMAP 
F8
00
F8
00
F8
ENDCHAR
STARTCHAR greaterequal
ENCODING 293
SWIDTH 562 0
DWIDTH 6 0
BBX 5 7 1 0
VVECTOR 4 11
SWIDTH1 0 -1219
DWIDTH1 0 -13
BITMAP 
80
60
18
60
80
00
F8
ENDCHAR
STARTCHAR lessequal
ENCODING 294
SWIDTH 562 0
DWIDTH 6 0
BBX 5 7 1 0
VVECTOR 4 11
SWIDTH1 0 -1219
DWIDTH1 0 -13
BITMAP 
08
30
C0
30
08
00
F8
ENDCHAR
STARTCHAR integraltp
ENCODING 295
SWIDTH 750 0
DWIDTH 8 0
BBX 3 13 4 -2
VVECTOR 7 11
SWIDTH1 0 -1219
DWIDTH1 0 -13
BITMAP 
60
A0
80
80
80
80
80
80
80
80
80
80
80
ENDCHAR
STARTCHAR integralbt
ENCODING 296
SWIDTH 750 0
DWIDTH 8 0
BBX 3 13 2 -2
VVECTOR 3 11
SWIDTH1 0 -1219
DWIDTH1 0 -13
BITMAP 
20
20
20
20
20
20
20
20
20
20
20
A0
C0
ENDCHAR
STARTCHAR approxequal
ENCODING 297
SWIDTH 562 0
DWIDTH 6 0
BBX 5 6 1 1
VVECTOR 4 11
SWIDTH1 0 -1219
DWIDTH1 0 -13
BITMAP 
48
A8
90
48
A8
90
ENDCHAR
STARTCHAR uni2219
ENCODING 298
SWIDTH 562 0
DWIDTH 6 0
BBX 1 1 3 4
VVECTOR 4 11
SWIDTH1 0 -1219
DWIDTH1 0 -13
BITMAP 
80
ENDCHAR
STARTCHAR radical
ENCODING 299
SWIDTH 750 0
DWIDTH 8 0
BBX 8 9 0 0
VVECTOR 4 11
SWIDTH1 0 -1219
DWIDTH1 0 -13
BITMAP 
03
02
04
04
C4
28
28
10
10
ENDCHAR
STARTCHAR uni207F
ENCODING 300
SWIDTH 375 0
DWIDTH 4 0
BBX 3 4 1 3
VVECTOR 3 11
SWIDTH1 0 -1219
DWIDTH1 0 -13
BITMAP 
C0
A0
A0
A0
ENDCHAR
STARTCHAR uni02C9
ENCODING 301
SWIDTH 375 0
DWIDTH 4 0
BBX 4 1 0 10
VVECTOR 2 11
SWIDTH1 0 -1219
DWIDTH1 0 -13
BITMAP 
F0
ENDCHAR
STARTCHAR breve
ENCODING 302
SWIDTH 375 0
DWIDTH 4 0
BBX 4 2 0 9
VVECTOR 2 11
SWIDTH1 0 -1219
DWIDTH1 0 -13
BITMAP 
90
60
ENDCHAR
STARTCHAR dotaccent
ENCODING 303
SWIDTH 375 0
DWIDTH 4 0
BBX 1 1 1 10
VVECTOR 1 11
SWIDTH1 0 -1219
DWIDTH1 0 -13
BITMAP 
80
ENDCHAR
STARTCHAR ring
ENCODING 304
SWIDTH 375 0
DWIDTH 4 0
BBX 3 3 1 8
VVECTOR 3 11
SWIDTH1 0 -1219
DWIDTH1 0 -13
BITMAP 
40
A0
40
ENDCHAR
STARTCHAR hungarumlaut
ENCODING 305
SWIDTH 469 0
DWIDTH 5 0
BBX 5 2 0 9
VVECTOR 3 11
SWIDTH1 0 -1219
DWIDTH1 0 -13
BITMAP 
48
90
ENDCHAR
STARTCHAR ogonek
ENCODING 306
SWIDTH 375 0
DWIDTH 4 0
BBX 3 2 1 -2
VVECTOR 3 11
SWIDTH1 0 -1219
DWIDTH1 0 -13
BITMAP 
80
E0
ENDCHAR
STARTCHAR caron
ENCODING 307
SWIDTH 375 0
DWIDTH 4 0
BBX 3 2 1 9
VVECTOR 3 11
SWIDTH1 0 -1219
DWIDTH1 0 -13
BITMAP 
A0
40
ENDCHAR
STARTCHAR quoteleft
ENCODING 308
SWIDTH 375 0
DWIDTH 4 0
BBX 2 3 1 8
VVECTOR 2 11
SWIDTH1 0 -1219
DWIDTH1 0 -13
BITMAP 
40
80
80
ENDCHAR
STARTCHAR quoteright
ENCODING 309
SWIDTH 375 0
DWIDTH 4 0
BBX 2 3 1 8
VVECTOR 2 11
SWIDTH1 0 -1219
DWIDTH1 0 -13
BITMAP 
40
40
80
ENDCHAR
STARTCHAR quotedblleft
ENCODING 310
SWIDTH 469 0
DWIDTH 5 0
BBX 5 3 0 8
VVECTOR 3 11
SWIDTH1 0 -1219
DWIDTH1 0 -13
BITMAP 
48
90
90
ENDCHAR
STARTCHAR quotedblright
ENCODING 311
SWIDTH 469 0
DWIDTH 5 0
BBX 5 3 0 8
VVECTOR 3 11
SWIDTH1 0 -1219
DWIDTH1 0 -13
BITMAP 
48
48
90
ENDCHAR
STARTCHAR endash
ENCODING 312
SWIDTH 562 0
DWIDTH 6 0
BBX 5 1 1 3
VVECTOR 4 11
SWIDTH1 0 -1219
DWIDTH1 0 -13
BITMAP 
F8
ENDCHAR
STARTCHAR emdash
ENCODING 313
SWIDTH 1031 0
DWIDTH 11 0
BBX 8 1 1 3
VVECTOR 5 11
SWIDTH1 0 -1219
DWIDTH1 0 -13
BITMAP 
FF
ENDCHAR
STARTCHAR uniFFE5
ENCODING 314
SWIDTH 469 0
DWIDTH 5 0
BBX 5 3 0 8
VVECTOR 3 11
SWIDTH1 0 -1219
DWIDTH1 0 -13
BITMAP 
20
50
88
ENDCHAR
STARTCHAR dotlessi
ENCODING 315
SWIDTH 562 0
DWIDTH 6 0
BBX 6 2 0 9
VVECTOR 3 11
SWIDTH1 0 -1219
DWIDTH1 0 -13
BITMAP 
64
98
ENDCHAR
STARTCHAR quotesinglbase
ENCODING 316
SWIDTH 375 0
DWIDTH 4 0
BBX 1 2 2 -1
VVECTOR 3 11
SWIDTH1 0 -1219
DWIDTH1 0 -13
BITMAP 
80
80
ENDCHAR
STARTCHAR quotedblbase
ENCODING 317
SWIDTH 469 0
DWIDTH 5 0
BBX 4 2 1 -1
VVECTOR 4 11
SWIDTH1 0 -1219
DWIDTH1 0 -13
BITMAP 
90
90
ENDCHAR
STARTCHAR ellipsis
ENCODING 318
SWIDTH 1031 0
DWIDTH 11 0
BBX 7 1 2 0
VVECTOR 6 11
SWIDTH1 0 -1219
DWIDTH1 0 -13
BITMAP 
92
ENDCHAR
STARTCHAR dagger
ENCODING 319
SWIDTH 469 0
DWIDTH 5 0
BBX 5 9 0 0
VVECTOR 3 11
SWIDTH1 0 -1219
DWIDTH1 0 -13
BITMAP 
20
20
F8
20
20
20
20
20
20
ENDCHAR
STARTCHAR daggerdbl
ENCODING 320
SWIDTH 469 0
DWIDTH 5 0
BBX 5 9 0 0
VVECTOR 3 11
SWIDTH1 0 -1219
DWIDTH1 0 -13
BITMAP 
20
20
F8
20
20
20
F8
20
20
ENDCHAR
STARTCHAR circumflex
ENCODING 321
SWIDTH 281 0
DWIDTH 3 0
BBX 3 2 0 7
VVECTOR 2 11
SWIDTH1 0 -1219
DWIDTH1 0 -13
BITMAP 
40
A0
ENDCHAR
STARTCHAR perthousand
ENCODING 322
SWIDTH 1031 0
DWIDTH 11 0
BBX 11 10 0 -1
VVECTOR 6 11
SWIDTH1 0 -1219
DWIDTH1 0 -13
BITMAP 
6080
9100
9200
6400
0800
1000
26C0
4920
8920
06C0
ENDCHAR
STARTCHAR Scaron
ENCODING 323
SWIDTH 562 0
DWIDTH 6 0
BBX 3 11 2 0
VVECTOR 4 11
SWIDTH1 0 -1219
DWIDTH1 0 -13
BITMAP 
A0
40
60
A0
80
80
40
20
20
A0
C0
ENDCHAR
STARTCHAR guilsinglleft
ENCODING 324
SWIDTH 375 0
DWIDTH 4 0
BBX 2 4 1 0
VVECTOR 2 11
SWIDTH1 0 -1219
DWIDTH1 0 -13
BITMAP 
40
80
80
40
ENDCHAR
STARTCHAR OE
ENCODING 325
SWIDTH 844 0
DWIDTH 9 0
BBX 8 9 1 0
VVECTOR 6 11
SWIDTH1 0 -1219
DWIDTH1 0 -13
BITMAP 
7F
89
88
8A
8E
8A
88
89
7F
ENDCHAR
STARTCHAR tilde
ENCODING 326
SWIDTH 281 0
DWIDTH 3 0
BBX 3 2 0 7
VVECTOR 2 11
SWIDTH1 0 -1219
DWIDTH1 0 -13
BITMAP 
60
C0
ENDCHAR
STARTCHAR trademark
ENCODING 327
SWIDTH 1031 0
DWIDTH 11 0
BBX 11 4 0 5
VVECTOR 6 11
SWIDTH1 0 -1219
DWIDTH1 0 -13
BITMAP 
FB60
22A0
22A0
2220
ENDCHAR
STARTCHAR scaron
ENCODING 328
SWIDTH 375 0
DWIDTH 4 0
BBX 3 9 1 0
VVECTOR 3 11
SWIDTH1 0 -1219
DWIDTH1 0 -13
BITMAP 
A0
40
00
60
80
40
20
20
C0
ENDCHAR
STARTCHAR guilsinglright
ENCODING 329
SWIDTH 375 0
DWIDTH 4 0
BBX 2 4 2 0
VVECTOR 4 11
SWIDTH1 0 -1219
DWIDTH1 0 -13
BITMAP 
80
40
40
80
ENDCHAR
STARTCHAR oe
ENCODING 330
SWIDTH 750 0
DWIDTH 8 0
BBX 7 6 1 0
VVECTOR 5 11
SWIDTH1 0 -1219
DWIDTH1 0 -13
BITMAP 
6C
92
9E
90
92
6C
ENDCHAR
STARTCHAR Ydieresis
ENCODING 331
SWIDTH 750 0
DWIDTH 8 0
BBX 7 11 1 0
VVECTOR 5 11
SWIDTH1 0 -1219
DWIDTH1 0 -13
BITMAP 
28
00
EE
44
44
28
28
10
10
10
38
ENDCHAR
STARTCHAR gbreve
ENCODING 332
SWIDTH 469 0
DWIDTH 5 0
BBX 4 11 1 -2
VVECTOR 4 11
SWIDTH1 0 -1219
DWIDTH1 0 -13
BITMAP 
90
60
00
70
90
90
90
90
70
10
60
ENDCHAR
STARTCHAR Gbreve
ENCODING 333
SWIDTH 750 0
DWIDTH 8 0
BBX 6 11 2 0
VVECTOR 6 11
SWIDTH1 0 -1219
DWIDTH1 0 -13
BITMAP 
48
30
78
88
80
80
9C
88
88
88
70
ENDCHAR
STARTCHAR Idotaccent
ENCODING 334
SWIDTH 375 0
DWIDTH 4 0
BBX 3 11 1 0
VVECTOR 3 11
SWIDTH1 0 -1219
DWIDTH1 0 -13
BITMAP 
40
00
E0
40
40
40
40
40
40
40
E0
ENDCHAR
STARTCHAR scedilla
ENCODING 335
SWIDTH 375 0
DWIDTH 4 0
BBX 3 8 1 -2
VVECTOR 3 11
SWIDTH1 0 -1219
DWIDTH1 0 -13
BITMAP 
60
80
40
20
20
C0
40
C0
ENDCHAR
STARTCHAR Scedilla
ENCODING 336
SWIDTH 562 0
DWIDTH 6 0
BBX 3 11 2 -2
VVECTOR 4 11
SWIDTH1 0 -1219
DWIDTH1 0 -13
BITMAP 
60
A0
80
80
40
20
20
A0
C0
40
C0
ENDCHAR
STARTCHAR abreve
ENCODING 337
SWIDTH 469 0
DWIDTH 5 0
BBX 4 9 1 0
VVECTOR 4 11
SWIDTH1 0 -1219
DWIDTH1 0 -13
BITMAP 
90
60
00
60
10
70
90
90
70
ENDCHAR
STARTCHAR Abreve
ENCODING 338
SWIDTH 750 0
DWIDTH 8 0
BBX 7 11 1 0
VVECTOR 5 11
SWIDTH1 0 -1219
DWIDTH1 0 -13
BITMAP 
48
30
10
10
28
28
28
44
7C
44
EE
ENDCHAR
STARTCHAR aogonek
ENCODING 339
SWIDTH 469 0
DWIDTH 5 0
BBX 4 8 1 -2
VVECTOR 4 11
SWIDTH1 0 -1219
DWIDTH1 0 -13
BITMAP 
60
10
70
90
90
70
20
30
ENDCHAR
STARTCHAR Aogonek
ENCODING 340
SWIDTH 750 0
DWIDTH 8 0
BBX 7 11 1 -2
VVECTOR 5 11
SWIDTH1 0 -1219
DWIDTH1 0 -13
BITMAP 
10
10
28
28
28
44
7C
44
EE
04
06
ENDCHAR
STARTCHAR cacute
ENCODING 341
SWIDTH 469 0
DWIDTH 5 0
BBX 4 9 1 0
VVECTOR 4 11
SWIDTH1 0 -1219
DWIDTH1 0 -13
BITMAP 
20
40
00
60
90
80
80
90
60
ENDCHAR
STARTCHAR Cacute
ENCODING 342
SWIDTH 656 0
DWIDTH 7 0
BBX 5 11 2 0
VVECTOR 6 11
SWIDTH1 0 -1219
DWIDTH1 0 -13
BITMAP 
10
20
78
88
80
80
80
80
80
88
70
ENDCHAR
STARTCHAR ccaron
ENCODING 343
SWIDTH 469 0
DWIDTH 5 0
BBX 4 9 1 0
VVECTOR 4 11
SWIDTH1 0 -1219
DWIDTH1 0 -13
BITMAP 
50
20
00
60
90
80
80
90
60
ENDCHAR
STARTCHAR Ccaron
ENCODING 344
SWIDTH 656 0
DWIDTH 7 0
BBX 5 11 2 0
VVECTOR 6 11
SWIDTH1 0 -1219
DWIDTH1 0 -13
BITMAP 
50
20
78
88
80
80
80
80
80
88
70
ENDCHAR
STARTCHAR dcaron
ENCODING 345
SWIDTH 469 0
DWIDTH 5 0
BBX 4 10 1 0
VVECTOR 4 11
SWIDTH1 0 -1219
DWIDTH1 0 -13
BITMAP 
A0
70
10
10
70
90
90
90
90
70
ENDCHAR
STARTCHAR Dcaron
ENCODING 346
SWIDTH 750 0
DWIDTH 8 0
BBX 6 11 1 0
VVECTOR 4 11
SWIDTH1 0 -1219
DWIDTH1 0 -13
BITMAP 
50
20
F0
48
44
44
44
44
44
48
F0
ENDCHAR
STARTCHAR dcroat
ENCODING 347
SWIDTH 469 0
DWIDTH 5 0
BBX 4 9 1 0
VVECTOR 4 11
SWIDTH1 0 -1219
DWIDTH1 0 -13
BITMAP 
30
10
30
70
90
90
90
90
70
ENDCHAR
STARTCHAR ecaron
ENCODING 348
SWIDTH 469 0
DWIDTH 5 0
BBX 4 9 1 0
VVECTOR 4 11
SWIDTH1 0 -1219
DWIDTH1 0 -13
BITMAP 
50
20
00
60
90
F0
80
90
60
ENDCHAR
STARTCHAR Ecaron
ENCODING 349
SWIDTH 656 0
DWIDTH 7 0
BBX 5 11 1 0
VVECTOR 4 11
SWIDTH1 0 -1219
DWIDTH1 0 -13
BITMAP 
50
20
F8
48
40
50
70
50
40
48
F8
ENDCHAR
STARTCHAR eogonek
ENCODING 350
SWIDTH 469 0
DWIDTH 5 0
BBX 4 8 1 -2
VVECTOR 4 11
SWIDTH1 0 -1219
DWIDTH1 0 -13
BITMAP 
60
90
F0
80
90
60
40
60
ENDCHAR
STARTCHAR Eogonek
ENCODING 351
SWIDTH 656 0
DWIDTH 7 0
BBX 5 11 1 -2
VVECTOR 4 11
SWIDTH1 0 -1219
DWIDTH1 0 -13
BITMAP 
F8
48
40
50
70
50
40
48
F8
20
30
ENDCHAR
STARTCHAR lacute
ENCODING 352
SWIDTH 188 0
DWIDTH 2 0
BBX 2 11 0 0
VVECTOR 1 11
SWIDTH1 0 -1219
DWIDTH1 0 -13
BITMAP 
40
80
C0
40
40
40
40
40
40
40
40
ENDCHAR
STARTCHAR Lacute
ENCODING 353
SWIDTH 562 0
DWIDTH 6 0
BBX 5 11 1 0
VVECTOR 4 11
SWIDTH1 0 -1219
DWIDTH1 0 -13
BITMAP 
20
40
E0
40
40
40
40
40
40
48
F8
ENDCHAR
STARTCHAR lcaron
ENCODING 354
SWIDTH 188 0
DWIDTH 2 0
BBX 2 11 0 0
VVECTOR 1 11
SWIDTH1 0 -1219
DWIDTH1 0 -13
BITMAP 
C0
40
C0
40
40
40
40
40
40
40
40
ENDCHAR
STARTCHAR Lcaron
ENCODING 355
SWIDTH 562 0
DWIDTH 6 0
BBX 5 11 1 0
VVECTOR 4 11
SWIDTH1 0 -1219
DWIDTH1 0 -13
BITMAP 
A0
40
E0
40
40
40
40
40
40
48
F8
ENDCHAR
STARTCHAR lslash
ENCODING 356
SWIDTH 188 0
DWIDTH 2 0
BBX 2 9 0 0
VVECTOR 1 11
SWIDTH1 0 -1219
DWIDTH1 0 -13
BITMAP 
C0
40
40
40
40
C0
40
40
40
ENDCHAR
STARTCHAR Lslash
ENCODING 357
SWIDTH 562 0
DWIDTH 6 0
BBX 5 9 1 0
VVECTOR 4 11
SWIDTH1 0 -1219
DWIDTH1 0 -13
BITMAP 
E0
40
40
40
60
C0
40
48
F8
ENDCHAR
STARTCHAR nacute
ENCODING 358
SWIDTH 469 0
DWIDTH 5 0
BBX 5 9 0 0
VVECTOR 3 11
SWIDTH1 0 -1219
DWIDTH1 0 -13
BITMAP 
10
20
00
B0
48
48
48
48
48
ENDCHAR
STARTCHAR Nacute
ENCODING 359
SWIDTH 750 0
DWIDTH 8 0
BBX 7 11 1 0
VVECTOR 5 11
SWIDTH1 0 -1219
DWIDTH1 0 -13
BITMAP 
08
10
CE
44
64
64
54
54
4C
4C
E4
ENDCHAR
STARTCHAR ncaron
ENCODING 360
SWIDTH 469 0
DWIDTH 5 0
BBX 5 9 0 0
VVECTOR 3 11
SWIDTH1 0 -1219
DWIDTH1 0 -13
BITMAP 
50
20
00
B0
48
48
48
48
48
ENDCHAR
STARTCHAR Ncaron
ENCODING 361
SWIDTH 750 0
DWIDTH 8 0
BBX 7 11 1 0
VVECTOR 5 11
SWIDTH1 0 -1219
DWIDTH1 0 -13
BITMAP 
28
10
CE
44
64
64
54
54
4C
4C
E4
ENDCHAR
STARTCHAR ohungarumlaut
ENCODING 362
SWIDTH 469 0
DWIDTH 5 0
BBX 4 9 1 0
VVECTOR 4 11
SWIDTH1 0 -1219
DWIDTH1 0 -13
BITMAP 
50
A0
00
60
90
90
90
90
60
ENDCHAR
STARTCHAR Ohungarumlaut
ENCODING 363
SWIDTH 750 0
DWIDTH 8 0
BBX 5 11 2 0
VVECTOR 5 11
SWIDTH1 0 -1219
DWIDTH1 0 -13
BITMAP 
48
90
70
88
88
88
88
88
88
88
70
ENDCHAR
STARTCHAR racute
ENCODING 364
SWIDTH 375 0
DWIDTH 4 0
BBX 4 9 0 0
VVECTOR 2 11
SWIDTH1 0 -1219
DWIDTH1 0 -13
BITMAP 
20
40
00
B0
50
40
40
40
60
ENDCHAR
STARTCHAR Racute
ENCODING 365
SWIDTH 656 0
DWIDTH 7 0
BBX 6 11 1 0
VVECTOR 5 11
SWIDTH1 0 -1219
DWIDTH1 0 -13
BITMAP 
10
20
F0
48
48
48
70
50
48
48
EC
ENDCHAR
STARTCHAR rcaron
ENCODING 366
SWIDTH 375 0
DWIDTH 4 0
BBX 4 9 0 0
VVECTOR 2 11
SWIDTH1 0 -1219
DWIDTH1 0 -13
BITMAP 
50
20
00
B0
50
40
40
40
60
ENDCHAR
STARTCHAR Rcaron
ENCODING 367
SWIDTH 656 0
DWIDTH 7 0
BBX 6 11 1 0
VVECTOR 5 11
SWIDTH1 0 -1219
DWIDTH1 0 -13
BITMAP 
50
20
F0
48
48
48
70
50
48
48
EC
ENDCHAR
STARTCHAR sacute
ENCODING 368
SWIDTH 375 0
DWIDTH 4 0
BBX 3 9 1 0
VVECTOR 3 11
SWIDTH1 0 -1219
DWIDTH1 0 -13
BITMAP 
20
40
00
60
80
40
20
20
C0
ENDCHAR
STARTCHAR Sacute
ENCODING 369
SWIDTH 562 0
DWIDTH 6 0
BBX 3 11 2 0
VVECTOR 4 11
SWIDTH1 0 -1219
DWIDTH1 0 -13
BITMAP 
20
40
60
A0
80
80
40
20
20
A0
C0
ENDCHAR
STARTCHAR tcaron
ENCODING 370
SWIDTH 281 0
DWIDTH 3 0
BBX 3 11 0 0
VVECTOR 2 11
SWIDTH1 0 -1219
DWIDTH1 0 -13
BITMAP 
A0
40
00
40
40
E0
40
40
40
40
20
ENDCHAR
STARTCHAR Tcaron
ENCODING 371
SWIDTH 562 0
DWIDTH 6 0
BBX 5 11 1 0
VVECTOR 4 11
SWIDTH1 0 -1219
DWIDTH1 0 -13
BITMAP 
50
20
F8
A8
20
20
20
20
20
20
70
ENDCHAR
STARTCHAR uni0163
ENCODING 372
SWIDTH 281 0
DWIDTH 3 0
BBX 3 10 0 -2
VVECTOR 2 11
SWIDTH1 0 -1219
DWIDTH1 0 -13
BITMAP 
40
40
E0
40
40
40
40
20
40
C0
ENDCHAR
STARTCHAR uni0162
ENCODING 373
SWIDTH 562 0
DWIDTH 6 0
BBX 5 11 1 -2
VVECTOR 4 11
SWIDTH1 0 -1219
DWIDTH1 0 -13
BITMAP 
F8
A8
20
20
20
20
20
20
70
20
60
ENDCHAR
STARTCHAR uhungarumlaut
ENCODING 374
SWIDTH 469 0
DWIDTH 5 0
BBX 5 9 0 0
VVECTOR 3 11
SWIDTH1 0 -1219
DWIDTH1 0 -13
BITMAP 
48
90
00
D8
48
48
48
48
38
ENDCHAR
STARTCHAR Uhungarumlaut
ENCODING 375
SWIDTH 750 0
DWIDTH 8 0
BBX 7 11 1 0
VVECTOR 5 11
SWIDTH1 0 -1219
DWIDTH1 0 -13
BITMAP 
24
48
EE
44
44
44
44
44
44
44
38
ENDCHAR
STARTCHAR uring
ENCODING 376
SWIDTH 469 0
DWIDTH 5 0
BBX 5 10 0 0
VVECTOR 3 11
SWIDTH1 0 -1219
DWIDTH1 0 -13
BITMAP 
20
50
20
00
D8
48
48
48
48
38
ENDCHAR
STARTCHAR Uring
ENCODING 377
SWIDTH 750 0
DWIDTH 8 0
BBX 7 11 1 0
VVECTOR 5 11
SWIDTH1 0 -1219
DWIDTH1 0 -13
BITMAP 
10
28
D6
44
44
44
44
44
44
44
38
ENDCHAR
STARTCHAR zacute
ENCODING 378
SWIDTH 469 0
DWIDTH 5 0
BBX 4 9 1 0
VVECTOR 4 11
SWIDTH1 0 -1219
DWIDTH1 0 -13
BITMAP 
20
40
00
F0
90
20
40
90
F0
ENDCHAR
STARTCHAR Zacute
ENCODING 379
SWIDTH 562 0
DWIDTH 6 0
BBX 5 11 1 0
VVECTOR 4 11
SWIDTH1 0 -1219
DWIDTH1 0 -13
BITMAP 
10
20
F8
88
10
10
20
40
40
88
F8
ENDCHAR
STARTCHAR zcaron
ENCODING 380
SWIDTH 469 0
DWIDTH 5 0
BBX 4 9 1 0
VVECTOR 4 11
SWIDTH1 0 -1219
DWIDTH1 0 -13
BITMAP 
A0
40
00
F0
90
20
40
90
F0
ENDCHAR
STARTCHAR Zcaron
ENCODING 381
SWIDTH 562 0
DWIDTH 6 0
BBX 5 11 1 0
VVECTOR 4 11
SWIDTH1 0 -1219
DWIDTH1 0 -13
BITMAP 
50
20
F8
88
10
10
20
40
40
88
F8
ENDCHAR
STARTCHAR zdotaccent
ENCODING 382
SWIDTH 469 0
DWIDTH 5 0
BBX 4 8 1 0
VVECTOR 4 11
SWIDTH1 0 -1219
DWIDTH1 0 -13
BITMAP 
40
00
F0
90
20
40
90
F0
ENDCHAR
ENDFONT
